<svg xmlns="http://www.w3.org/2000/svg" xmlns:xlink="http://www.w3.org/1999/xlink" width="1103.235" height="721.519" viewBox="0 0 1103.235 721.519"><defs><linearGradient id="a" x1="25.864" y1="-23.916" x2="3.569" y2="-8.638" gradientUnits="objectBoundingBox"><stop offset="0" stop-color="#f9a92a"/><stop offset="0.095" stop-color="#f9a92a"/><stop offset="0.587" stop-color="#8abb2a"/><stop offset="1" stop-color="#0d988c"/></linearGradient><linearGradient id="b" x1="40.858" y1="-39.014" x2="3.813" y2="-13.628" xlink:href="#a"/><linearGradient id="c" x1="44.669" y1="-43.775" x2="1.671" y2="-14.309" xlink:href="#a"/><linearGradient id="d" x1="23.994" y1="-22.812" x2="1.699" y2="-7.533" xlink:href="#a"/><linearGradient id="e" x1="21.41" y1="-21.273" x2="-0.886" y2="-5.995" xlink:href="#a"/><linearGradient id="f" x1="16.217" y1="-16.405" x2="-1.823" y2="-4.043" xlink:href="#a"/><linearGradient id="g" x1="12.679" y1="-11.998" x2="0.138" y2="-3.404" xlink:href="#a"/><linearGradient id="h" x1="9.639" y1="-9.609" x2="-1.508" y2="-1.97" xlink:href="#a"/><linearGradient id="i" x1="6.427" y1="-6.679" x2="-2.287" y2="-0.708" xlink:href="#a"/><linearGradient id="j" x1="10.078" y1="-12.766" x2="-7.962" y2="-0.404" xlink:href="#a"/><linearGradient id="k" x1="15.026" y1="-17.483" x2="-7.269" y2="-2.204" xlink:href="#a"/><linearGradient id="l" x1="20.343" y1="-22.157" x2="-5.569" y2="-4.4" xlink:href="#a"/><linearGradient id="m" x1="26.31" y1="-30.201" x2="-10.335" y2="-5.089" xlink:href="#a"/><linearGradient id="n" x1="15.095" y1="-19.081" x2="-10.925" y2="-1.25" xlink:href="#a"/><linearGradient id="o" x1="25.502" y1="-32.032" x2="-16.636" y2="-3.155" xlink:href="#a"/><linearGradient id="p" x1="12.18" y1="-15.794" x2="-10.115" y2="-0.516" xlink:href="#a"/><linearGradient id="q" x1="14.185" y1="-19.982" x2="-15.268" y2="0.202" xlink:href="#a"/><linearGradient id="r" x1="8.075" y1="-11.952" x2="-10.878" y2="1.036" xlink:href="#a"/><linearGradient id="s" x1="6.832" y1="-9.344" x2="-7.656" y2="0.585" xlink:href="#a"/><linearGradient id="t" x1="4.185" y1="-6.633" x2="-7.595" y2="1.44" xlink:href="#a"/><linearGradient id="u" x1="11.932" y1="-21.445" x2="-24.183" y2="3.304" xlink:href="#a"/><linearGradient id="v" x1="4.655" y1="-10.151" x2="-14.826" y2="3.199" xlink:href="#a"/><linearGradient id="w" x1="5.573" y1="-12.529" x2="-18.283" y2="3.819" xlink:href="#a"/><linearGradient id="x" x1="4.31" y1="-8.582" x2="-12.224" y2="2.748" xlink:href="#a"/><linearGradient id="y" x1="9.233" y1="-12.084" x2="-14.623" y2="4.264" xlink:href="#a"/><linearGradient id="z" x1="18.181" y1="-18.13" x2="-17.934" y2="6.62" xlink:href="#a"/><linearGradient id="aa" x1="27.886" y1="-32.877" x2="-38.39" y2="12.541" xlink:href="#a"/><linearGradient id="ab" x1="9.929" y1="-16.349" x2="-20.965" y2="4.822" xlink:href="#a"/><linearGradient id="ac" x1="3.98" y1="-9.021" x2="-13.795" y2="3.16" xlink:href="#a"/><linearGradient id="ad" x1="1.34" y1="-3.66" x2="-7.388" y2="2.322" xlink:href="#a"/><linearGradient id="ae" x1="1.642" y1="-4.193" x2="-7.672" y2="2.19" xlink:href="#a"/><linearGradient id="af" x1="0.546" y1="-2.818" x2="-7.479" y2="2.681" xlink:href="#a"/><linearGradient id="ag" x1="-1.067" y1="-2.352" x2="-10.25" y2="3.941" xlink:href="#a"/><linearGradient id="ah" x1="0.193" y1="-1.861" x2="-6.079" y2="2.437" xlink:href="#a"/><linearGradient id="ai" x1="-1.094" y1="-6.235" x2="-19.412" y2="6.317" xlink:href="#a"/><linearGradient id="aj" x1="0.093" y1="-5.118" x2="-14.022" y2="4.555" xlink:href="#a"/><linearGradient id="ak" x1="1.677" y1="-6.004" x2="-12.438" y2="3.669" xlink:href="#a"/><linearGradient id="al" x1="1.784" y1="-4.353" x2="-8.262" y2="2.531" xlink:href="#a"/><linearGradient id="am" x1="3.023" y1="-12.451" x2="-24.322" y2="6.288" xlink:href="#a"/><linearGradient id="an" x1="3.14" y1="-12.784" x2="-24.205" y2="5.955" xlink:href="#a"/><linearGradient id="ao" x1="4.925" y1="-9.127" x2="-11.783" y2="2.322" xlink:href="#a"/><linearGradient id="ap" x1="12.258" y1="-30.348" x2="-44.68" y2="8.67" xlink:href="#a"/></defs><g transform="translate(-2519.525 -291.272) rotate(24)"><g transform="translate(3068.032 -335.455)"><path d="M2964.039-532.773h.6l-.6-1.01Z" transform="translate(-2964.039 533.783)" fill="#fff"/></g><circle cx="16.945" cy="16.945" r="16.945" transform="translate(2669.585 -232.39)" fill="url(#a)"/><circle cx="10.198" cy="10.198" r="10.198" transform="translate(2737.198 -211.458)" fill="url(#b)"/><circle cx="8.786" cy="8.786" r="8.786" transform="translate(2777.52 -249.804)" fill="url(#c)"/><circle cx="16.945" cy="16.945" r="16.945" transform="translate(2774.946 -208.544)" fill="url(#d)"/><circle cx="16.945" cy="16.945" r="16.945" transform="translate(2826.428 -313.361)" fill="url(#e)"/><circle cx="20.942" cy="20.942" r="20.942" transform="translate(2886.58 -327.014)" fill="url(#f)"/><circle cx="30.124" cy="30.124" r="30.124" transform="translate(2827.97 -253.257)" fill="url(#g)"/><circle cx="33.889" cy="33.889" r="33.889" transform="translate(2952.796 -303.986)" fill="url(#h)"/><circle cx="43.352" cy="43.352" r="43.352" transform="translate(3037.415 -392.848)" fill="url(#i)"/><circle cx="20.942" cy="20.942" r="20.942" transform="translate(3194.659 -405.095)" fill="url(#j)"/><circle cx="16.945" cy="16.945" r="16.945" transform="translate(3036.465 -451.005)" fill="url(#k)"/><circle cx="14.58" cy="14.58" r="14.58" transform="translate(2946.099 -406.749)" fill="url(#l)"/><circle cx="10.309" cy="10.309" r="10.309" transform="translate(2982.731 -450.674)" fill="url(#m)"/><circle cx="14.519" cy="14.519" r="14.519" transform="translate(3066.633 -548.829)" fill="url(#n)"/><circle cx="8.965" cy="8.965" r="8.965" transform="translate(3088.117 -469.576)" fill="url(#o)"/><circle cx="16.945" cy="16.945" r="16.945" transform="translate(3138.417 -500.212)" fill="url(#p)"/><circle cx="12.827" cy="12.827" r="12.827" transform="translate(3142.72 -587.908)" fill="url(#q)"/><circle cx="19.933" cy="19.933" r="19.933" transform="translate(3207.804 -590.31)" fill="url(#r)"/><circle cx="26.075" cy="26.075" r="26.075" transform="translate(3221.006 -510.089)" fill="url(#s)"/><circle cx="32.07" cy="32.07" r="32.07" transform="translate(3317.029 -556.308)" fill="url(#t)"/><circle cx="10.461" cy="10.461" r="10.461" transform="translate(3281.188 -616.532)" fill="url(#u)"/><circle cx="19.392" cy="19.392" r="19.392" transform="translate(3415.904 -575.702)" fill="url(#v)"/><circle cx="15.836" cy="15.836" r="15.836" transform="translate(3383.801 -625.353)" fill="url(#w)"/><circle cx="22.849" cy="22.849" r="22.849" transform="translate(3231.654 -699.295)" fill="url(#x)"/><circle cx="21.981" cy="21.981" r="21.981" transform="translate(3148.16 -698.427)" fill="url(#y)"/><circle cx="21.862" cy="21.862" r="21.862" transform="translate(3095.674 -654.463)" fill="url(#z)"/><circle cx="9.93" cy="9.93" r="9.93" transform="translate(3117.536 -753.984)" fill="url(#aa)"/><circle cx="14.224" cy="14.224" r="14.224" transform="translate(3190.986 -762.071)" fill="url(#ab)"/><circle cx="21.254" cy="21.254" r="21.254" transform="translate(3306.591 -762.07)" fill="url(#ac)"/><circle cx="43.282" cy="43.282" r="43.282" transform="translate(3332.972 -871.076)" fill="url(#ad)"/><circle cx="40.561" cy="40.561" r="40.561" transform="translate(3459.767 -838.24)" fill="url(#ae)"/><circle cx="47.08" cy="47.08" r="47.08" transform="translate(3398.036 -748.102)" fill="url(#af)"/><circle cx="41.137" cy="41.137" r="41.137" transform="translate(3426.734 -1025.532)" fill="url(#ag)"/><circle cx="60.234" cy="60.234" r="60.234" transform="translate(3176.31 -1095.347)" fill="url(#ah)"/><circle cx="20.624" cy="20.624" r="20.624" transform="translate(3509.01 -905.649)" fill="url(#ai)"/><circle cx="26.765" cy="26.765" r="26.765" transform="translate(3336.885 -1001.643)" fill="url(#aj)"/><circle cx="26.765" cy="26.765" r="26.765" transform="translate(3227.738 -920.847)" fill="url(#ak)"/><circle cx="37.606" cy="37.606" r="37.606" transform="translate(3117.537 -943.255)" fill="url(#al)"/><circle cx="13.816" cy="13.816" r="13.816" transform="translate(3291.518 -948.48)" fill="url(#am)"/><circle cx="13.816" cy="13.816" r="13.816" transform="translate(3431.3 -894.081)" fill="url(#an)"/><circle cx="22.612" cy="22.612" r="22.612" transform="translate(3182.597 -835.564)" fill="url(#ao)"/><circle cx="6.635" cy="6.635" r="6.635" transform="translate(3275.494 -797.679)" fill="url(#ap)"/></g></svg>