<svg xmlns="http://www.w3.org/2000/svg" xmlns:xlink="http://www.w3.org/1999/xlink" width="1435.556" height="1028.615" viewBox="0 0 1435.556 1028.615"><defs><linearGradient id="a" x1="25.864" y1="-23.916" x2="3.569" y2="-8.638" gradientUnits="objectBoundingBox"><stop offset="0" stop-color="#f9a92a"/><stop offset="0.095" stop-color="#f9a92a"/><stop offset="0.587" stop-color="#8abb2a"/><stop offset="1" stop-color="#0d988c"/></linearGradient><linearGradient id="b" x1="40.858" y1="-39.014" x2="3.813" y2="-13.628" xlink:href="#a"/><linearGradient id="c" x1="44.669" y1="-43.775" x2="1.671" y2="-14.309" xlink:href="#a"/><linearGradient id="d" x1="23.994" y1="-22.812" x2="1.699" y2="-7.533" xlink:href="#a"/><linearGradient id="e" x1="21.41" y1="-21.273" x2="-0.886" y2="-5.995" xlink:href="#a"/><linearGradient id="f" x1="16.217" y1="-16.405" x2="-1.823" y2="-4.043" xlink:href="#a"/><linearGradient id="g" x1="12.679" y1="-11.998" x2="0.138" y2="-3.404" xlink:href="#a"/><linearGradient id="h" x1="9.639" y1="-9.609" x2="-1.508" y2="-1.97" xlink:href="#a"/><linearGradient id="i" x1="6.427" y1="-6.679" x2="-2.287" y2="-0.708" xlink:href="#a"/><linearGradient id="j" x1="10.078" y1="-12.766" x2="-7.962" y2="-0.404" xlink:href="#a"/><linearGradient id="k" x1="15.026" y1="-17.483" x2="-7.269" y2="-2.204" xlink:href="#a"/><linearGradient id="l" x1="20.343" y1="-22.157" x2="-5.569" y2="-4.4" xlink:href="#a"/><linearGradient id="m" x1="26.31" y1="-30.201" x2="-10.335" y2="-5.089" xlink:href="#a"/><linearGradient id="n" x1="15.095" y1="-19.081" x2="-10.925" y2="-1.25" xlink:href="#a"/><linearGradient id="o" x1="25.502" y1="-32.032" x2="-16.636" y2="-3.155" xlink:href="#a"/><linearGradient id="p" x1="12.18" y1="-15.794" x2="-10.115" y2="-0.516" xlink:href="#a"/><linearGradient id="q" x1="14.185" y1="-19.982" x2="-15.268" y2="0.202" xlink:href="#a"/><linearGradient id="r" x1="8.075" y1="-11.952" x2="-10.878" y2="1.036" xlink:href="#a"/><linearGradient id="s" x1="6.832" y1="-9.344" x2="-7.656" y2="0.585" xlink:href="#a"/><linearGradient id="t" x1="4.185" y1="-6.633" x2="-7.595" y2="1.44" xlink:href="#a"/><linearGradient id="u" x1="11.932" y1="-21.445" x2="-24.183" y2="3.304" xlink:href="#a"/><linearGradient id="v" x1="4.655" y1="-10.151" x2="-14.826" y2="3.199" xlink:href="#a"/><linearGradient id="w" x1="5.573" y1="-12.529" x2="-18.283" y2="3.819" xlink:href="#a"/><linearGradient id="x" x1="4.31" y1="-8.582" x2="-12.224" y2="2.748" xlink:href="#a"/><linearGradient id="y" x1="9.233" y1="-12.084" x2="-14.623" y2="4.264" xlink:href="#a"/><linearGradient id="z" x1="18.181" y1="-18.13" x2="-17.934" y2="6.62" xlink:href="#a"/><linearGradient id="aa" x1="27.886" y1="-32.877" x2="-38.39" y2="12.541" xlink:href="#a"/><linearGradient id="ab" x1="9.929" y1="-16.349" x2="-20.965" y2="4.822" xlink:href="#a"/><linearGradient id="ac" x1="3.98" y1="-9.021" x2="-13.795" y2="3.16" xlink:href="#a"/><linearGradient id="ad" x1="1.34" y1="-3.66" x2="-7.388" y2="2.322" xlink:href="#a"/><linearGradient id="ae" x1="1.642" y1="-4.193" x2="-7.672" y2="2.19" xlink:href="#a"/><linearGradient id="af" x1="0.546" y1="-2.818" x2="-7.479" y2="2.681" xlink:href="#a"/><linearGradient id="ag" x1="-1.067" y1="-2.352" x2="-10.25" y2="3.941" xlink:href="#a"/><linearGradient id="ah" x1="0.193" y1="-1.861" x2="-6.079" y2="2.437" xlink:href="#a"/><linearGradient id="ai" x1="-1.094" y1="-6.235" x2="-19.412" y2="6.317" xlink:href="#a"/><linearGradient id="aj" x1="0.093" y1="-5.118" x2="-14.022" y2="4.555" xlink:href="#a"/><linearGradient id="ak" x1="1.677" y1="-6.004" x2="-12.438" y2="3.669" xlink:href="#a"/><linearGradient id="al" x1="1.784" y1="-4.353" x2="-8.262" y2="2.531" xlink:href="#a"/><linearGradient id="am" x1="3.023" y1="-12.451" x2="-24.322" y2="6.288" xlink:href="#a"/><linearGradient id="an" x1="3.14" y1="-12.784" x2="-24.205" y2="5.955" xlink:href="#a"/><linearGradient id="ao" x1="4.925" y1="-9.127" x2="-11.783" y2="2.322" xlink:href="#a"/><linearGradient id="ap" x1="12.258" y1="-30.348" x2="-44.68" y2="8.67" xlink:href="#a"/></defs><g transform="translate(-2486.414 -56.265) rotate(19)"><g transform="translate(3207.706 -69.078)"><path d="M2964.039-532.419h.814l-.814-1.364Z" transform="translate(-2964.039 533.783)" fill="#fff"/></g><circle cx="22.884" cy="22.884" r="22.884" transform="translate(2669.585 70.115)" fill="url(#a)"/><circle cx="13.773" cy="13.773" r="13.773" transform="translate(2760.899 98.386)" fill="url(#b)"/><circle cx="11.866" cy="11.866" r="11.866" transform="translate(2815.356 46.597)" fill="url(#c)"/><circle cx="22.884" cy="22.884" r="22.884" transform="translate(2811.879 102.321)" fill="url(#d)"/><circle cx="22.884" cy="22.884" r="22.884" transform="translate(2881.409 -39.24)" fill="url(#e)"/><circle cx="28.283" cy="28.283" r="28.283" transform="translate(2962.647 -57.678)" fill="url(#f)"/><circle cx="40.683" cy="40.683" r="40.683" transform="translate(2883.491 41.934)" fill="url(#g)"/><circle cx="45.769" cy="45.769" r="45.769" transform="translate(3052.074 -26.578)" fill="url(#h)"/><circle cx="58.549" cy="58.549" r="58.549" transform="translate(3166.356 -146.589)" fill="url(#i)"/><circle cx="28.283" cy="28.283" r="28.283" transform="translate(3378.722 -163.13)" fill="url(#j)"/><circle cx="22.884" cy="22.884" r="22.884" transform="translate(3165.074 -225.133)" fill="url(#k)"/><circle cx="19.69" cy="19.69" r="19.69" transform="translate(3043.03 -165.365)" fill="url(#l)"/><circle cx="13.923" cy="13.923" r="13.923" transform="translate(3092.504 -224.686)" fill="url(#m)"/><circle cx="19.609" cy="19.609" r="19.609" transform="translate(3205.817 -357.249)" fill="url(#n)"/><circle cx="12.108" cy="12.108" r="12.108" transform="translate(3234.832 -250.215)" fill="url(#o)"/><circle cx="22.884" cy="22.884" r="22.884" transform="translate(3302.764 -291.59)" fill="url(#p)"/><circle cx="17.323" cy="17.323" r="17.323" transform="translate(3308.575 -410.027)" fill="url(#q)"/><circle cx="26.92" cy="26.92" r="26.92" transform="translate(3396.474 -413.271)" fill="url(#r)"/><circle cx="35.216" cy="35.216" r="35.216" transform="translate(3414.305 -304.929)" fill="url(#s)"/><circle cx="43.312" cy="43.312" r="43.312" transform="translate(3543.988 -367.35)" fill="url(#t)"/><circle cx="14.128" cy="14.128" r="14.128" transform="translate(3495.583 -448.685)" fill="url(#u)"/><circle cx="26.19" cy="26.19" r="26.19" transform="translate(3677.523 -393.542)" fill="url(#v)"/><circle cx="21.387" cy="21.387" r="21.387" transform="translate(3634.167 -460.599)" fill="url(#w)"/><circle cx="30.858" cy="30.858" r="30.858" transform="translate(3428.685 -560.46)" fill="url(#x)"/><circle cx="29.687" cy="29.687" r="29.687" transform="translate(3315.923 -559.289)" fill="url(#y)"/><circle cx="29.525" cy="29.525" r="29.525" transform="translate(3245.037 -499.913)" fill="url(#z)"/><circle cx="13.412" cy="13.412" r="13.412" transform="translate(3274.563 -634.32)" fill="url(#aa)"/><circle cx="19.21" cy="19.21" r="19.21" transform="translate(3373.76 -645.242)" fill="url(#ab)"/><circle cx="28.704" cy="28.704" r="28.704" transform="translate(3529.89 -645.242)" fill="url(#ac)"/><circle cx="58.454" cy="58.454" r="58.454" transform="translate(3565.519 -792.459)" fill="url(#ad)"/><circle cx="54.779" cy="54.779" r="54.779" transform="translate(3736.762 -748.113)" fill="url(#ae)"/><circle cx="63.583" cy="63.583" r="63.583" transform="translate(3653.391 -626.377)" fill="url(#af)"/><circle cx="55.557" cy="55.557" r="55.557" transform="translate(3692.15 -1001.059)" fill="url(#ag)"/><circle cx="81.348" cy="81.348" r="81.348" transform="translate(3353.94 -1095.347)" fill="url(#ah)"/><circle cx="27.854" cy="27.854" r="27.854" transform="translate(3803.268 -839.151)" fill="url(#ai)"/><circle cx="36.148" cy="36.148" r="36.148" transform="translate(3570.804 -968.795)" fill="url(#aj)"/><circle cx="36.148" cy="36.148" r="36.148" transform="translate(3423.396 -859.677)" fill="url(#ak)"/><circle cx="50.788" cy="50.788" r="50.788" transform="translate(3274.564 -889.94)" fill="url(#al)"/><circle cx="18.659" cy="18.659" r="18.659" transform="translate(3509.533 -896.996)" fill="url(#am)"/><circle cx="18.659" cy="18.659" r="18.659" transform="translate(3698.315 -823.529)" fill="url(#an)"/><circle cx="30.538" cy="30.538" r="30.538" transform="translate(3362.432 -744.499)" fill="url(#ao)"/><circle cx="8.961" cy="8.961" r="8.961" transform="translate(3487.893 -693.333)" fill="url(#ap)"/></g></svg>