<svg xmlns="http://www.w3.org/2000/svg" xmlns:xlink="http://www.w3.org/1999/xlink" width="1943" height="1092" viewBox="0 0 1943 1092"><defs><clipPath id="a"><rect width="1943" height="1092" transform="translate(-0.403 -0.221)" fill="none"/></clipPath></defs><g transform="translate(2.087 -0.047)"><g transform="translate(-1.683 0.267)" clip-path="url(#a)"><g transform="translate(-2406.056 81.291)"><g transform="translate(2271.554 262.63)" opacity="0.4"><path d="M2239.662,594.473l26.787-327.495.515-1.136-.983.68-276.337-1.753-.053-.563-.437.456-.151-.044L1719.965,145.944l-.457-1.01-.165,1.131L1509.516,400.222,1283.271,576,1000.545,414.142l-.279-1.7-.515.612-.362.425-1.583-.905,1.243,1.3L824.141,617.139l-.083-.041-.629-.311.155,1L688.509,774.765,497.7,615.052l-.146-.124-233.2,61.126L191.92,572.518h.066l-.294-.335-.762-.833-.709.413-.617.7-.534,1.041L9.242,709.667l-.808.748-60.27,227.818-1.573,1.306.466.558.782-.648-.063.235-.553,2.1,1.262-1.891,162.57-36.079,42.32,163.476.073.281,131.9-4.886,38.761,222.049.131.748L477.91,1110.3,617.9,1195.531l.245.391L859.182,849.455l1.289-.794,226.915,96.524.17.09,203.606-130.508,122.649,269.165.206-1.306,206.1-371.4L1855.3,755.109l.209.3,1.3,1.891-.6-2.022,176.61,32.96.825.828,2.514,1.879-2.328-3.054,204.431-192.462.923,2.01.056-2.209.359.032.007-.087,1.233-.187Zm-223.8-21.756-.318.175-10.522-125.239,231.9,146.329-220.939-21.047Zm-303.8-28.693-158.084,11.819,98.521-148.958,187.712,7.942Zm-224.194,16.76,22.635-159.905,141.147,5.971-98.589,149.06Zm64.683-4.107-81.552,123.3,16.765-118.462Zm288.316-142.511-.053-.01-42.65-94.664,189.758-53.585Zm148.077-148.13,15.19,180.622-162.315-32.3Zm15.255,181.379,10.367,123.253L1841.776,415.091Zm.755-.633-15.027-178.857.73-.342,93.975,124.178ZM1797.822,318.755l-77.411-171.818,267.7,118.085Zm-.709.2-107.019,30.22L1719.867,147.5Zm.332.738,42.529,94.395-187.015-7.913,36.926-55.828.046-.066.034-.243Zm-145.334,86.448-139.868-5.918,176.8-49.922Zm-165.051,154.7-202.582,15.144L1509.7,401Zm-.1.74-16.986,119.937-.42.638.3.2-1.194-.226-184.147-105.42ZM1470.512,683.3l18.826,3.522-21.224,13.6Zm.119-.786.121-.85,82.71-125.052,157.339-11.76-220.476,141.31Zm241.763-137.523,104.2,79.066-.192.053,38.4,129L1711.857,545.954Zm1.228-.053,293.35,27.938L1817.566,623.8Zm-.493-.852,127.765-128.8,172.966,155.742-4.738,1.274Zm301.5,27.484.107,1.265-3.549-.34Zm70.433-179.226L2237.1,593.233,2005.64,447.187Zm.651-.451,179.508-123.962L2163.168,494.211Zm-.437-.583-94.946-125.433-.248-.374,274.849,1.743Zm-395.954-41.912L1510.8,399.8l208.337-252.346ZM1466.48,681.727,1210,633.853l73.336-56.978ZM1282.649,576.484l-73.1,56.791L1001.8,415.7Zm-73.664,57.25-.053.146-156.5,96.011L1000.8,415.71ZM999.564,414.414l.342.357,51.781,315.1-226.867-112.4ZM1050.515,730.1,845.637,755.74,824.365,618.059ZM823.734,618.741,844.917,755.83,689.99,775.221l-.672-.286ZM617.984,1194.312c-3.338-5.253-23.986-37.718-44.7-70.2-37.135-58.226-44.017-68.785-45.473-70.7l.4-.454-.612.022.049-.078L664.829,968.72ZM393.559,1057.949,253.279,872.262,527.07,1052.886l.073.116Zm132.984-4.2-48.779,55.607-83.295-50.716ZM381.712,843.768l.133-.032L594.279,936.9,527.32,1051.857Zm39.123-130.03L503.9,815.832,381.8,842.926l-.5-.219-.437-.128-38.514-55.044Zm-78.9,73.195-76.7-109.621,154.89,36.1Zm346.154-11.085L594.648,936.265l-211.6-92.793,304.923-67.649ZM379.673,842.224l-72.654-21.467,34.756-32.681Zm.667.956.039.054L253.444,871.419l-.18-.116,53.143-49.971Zm.515.782L525.818,1051.09,254.374,872.022Zm214.15,93.252L664.761,967.8,528.49,1051.427Zm.367-.633L688.6,776.5,665.113,967.164ZM504.295,815.745l.284-.231L421.825,713.8,686.143,775.4ZM265.265,676.569l231.25-60.614L420.728,712.8Zm-1.2.469,77.292,110.437-35.142,33.045L147.5,773.617l116.345-96.63ZM305.6,821.094l-52.959,49.8-.791-.522-.1-.141.015.078L128.786,789.161l18.037-14.984ZM128.15,788.744l-55.116-36.37,72.952,21.554Zm-.643.531-37.327,31-17.367-67.09Zm.634.418,123.806,81.686.039.218-.083.158L111.569,902.9l-21.19-81.843Zm264.531,268.291-106.718,3.954-32.97-188.865ZM689.39,776.029l.34-.041,169.442,72.1.012.08-.391.566-192.945,118.4Zm1.932-.24,153.7-19.239,14,90.63ZM687.66,775,421.51,712.981l76.013-97.131ZM191.279,573.04l72.26,103.252L146.658,773.369,73.089,751.63Zm-1.617,1.049-117.4,177.3-.107-.032-.617-.182.058.231L9.516,710.454ZM9.057,711.121l62.571,41.271L-50.763,937.286Zm63,42.058,17.5,67.615L-48.664,935.6ZM-50.889,938.956l.833-1.257L89.765,821.57l21.093,81.489Zm162.655-35.3,139.683-31-97.613,193.516Zm42.563,163.153L252.194,872.8l33.023,189.164Zm131.751-4.153,106.983-3.959-68.5,224.41Zm39.232,220.5,68.4-224.121,83.562,50.876Zm202.048-229.233c4.947,7.042,80.838,126.348,89.652,140.21L478.4,1109.743Zm91.521,139.666,46.8-225.389.036.017.007-.051L857.631,850.4ZM859.82,847.518l-14.069-91.057,205.257-25.688L860.386,847.758Zm227.085,96.609-225.614-96,190.622-116.961Zm-34.329-213.39.325-.2.1-.012-.046-.022,155.492-95.409L1087.59,943.626Zm35.761,213.1,120.94-308.686,81.555,178.9Zm121.59-309.174,258.718,48.3.908.52.182-.316-2.522,17.816L1291.506,813.614Zm203.516,446.43L1291.815,814.359l175.27-112.335Zm.864-.667,53.641-378.958,22.508-14.433,128.836,24.011Zm205.422-370.1-128.285-23.911,219.711-140.829h0l-.3.206.1.148Zm.8.153,90.931-163.811,143.193,207.519Zm235.423,43.949-38.637-129.807.014,0,214.293,162.6Zm176.784,32.618L1818.3,624.35l190.744-51.281,5.755.548Zm.823.019-17.96-213.3,83.142,151.805.318-.175Zm65.775-61.925-82.892-151.351,221.271,21.071Zm64.331-230.265,101.89-225.915-26.581,324.99-.02-.267-.3.26Z" transform="translate(61.838 -137.354)" fill="#b3b3b3"/><path d="M1719.384,144.053l.769,1.7,268.926,118.626.708-.74.084.882,276.033,1.751,1.661-1.148-.87,1.919-26.769,327.273,1.8.79-1.893.287-.012.141-.344-.03-.076,3.021-1.228-2.674L2034.163,787.919l3.275,4.3-3.962-2.96-.783-.786L1856.562,755.6l.935,3.143-2.349-3.406-234.9-43.836-205.992,371.207-.329,2.084-.345-.757-122.529-268.9L1087.568,945.564l-.289-.154L860.492,848.942l-1.135.7L618.134,1196.375l-.415-.661L477.96,1110.621,324.082,1286.041l-.221-1.261-38.724-221.834-131.882,4.886-.123-.476-42.26-163.242L-51.364,940.118l-2.037,3.051.8-3.029-.372.309-.786-.942,1.7-1.415L8.21,710.281l.881-.813L188.874,573.341l.522-1.018.664-.755.035-.021.883-.514.9.985.657.75H192.4l72.063,103L497.62,614.653l.245.209L688.481,774.415l134.84-156.7-.211-1.362.969.479L998.712,413.882l-2.279-2.382,2.9,1.659.227-.267.863-1.026.348,2.118L1283.25,575.7l226.091-175.657L1719.106,145.96Zm269.845,120.892-.327-.1L1719.776,146.134l-.144-.319-.052.355-.045.054L1509.691,400.4l-.022.017L1283.292,576.3l-.145-.083L1000.317,414.3l-.21-1.28-.165.2-.5.584-.265-.151.206.216-.148.172L824.2,617.45l-.453-.225.1.638-.075.087L688.538,775.115l-.189-.158L497.494,615.2,264.252,676.34l-.1-.143L191.47,572.312l-.589-.644-.5.291-.568.647-.546,1.065-.046.034L9.4,709.86l-.745.689L-51.615,938.374l-1.441,1.2.146.174,1.195-.991-.267.994-.172.655.488-.731.1-.022L111.236,903.52l.061.234,42.343,163.563,131.916-4.887.037.215,38.8,222.282,153.466-174.951.179.109,140.039,85.263.076.121,240.851-346.2,1.443-.889.119.051L1087.5,944.964l.041.021L1291.27,814.4l.119.263,122.3,268.408.084-.529.021-.038,206.189-371.562.177.033,235.278,43.907.268.386.408.592-.268-.9.4.075,176.686,32.974.867.87,1.068.8-1.38-1.811.164-.154,204.684-192.7.618,1.345.035-1.4.375.033,0-.034.574-.087-.547-.24.015-.178L2266.2,266.915l.16-.354-.306.212h-.079l-276.563-1.754-.023-.244Zm-269.314-118.5.6.263,268.337,118.366-.669.189-190.5,53.791-.089-.2Zm267.46,118.526L1720.907,147.429l77.055,171.027ZM1719.517,146.607l-.131.887-29.838,202.1-.156.044L1510.1,400.262l.51-.617ZM1689.1,349.2l29.66-200.889L1511.5,399.346Zm30.644-202.576.351.778,77.365,171.718-.279.079-107.391,30.325.056-.382Zm77.022,172.173L1719.99,148.383,1690.4,348.83Zm192.852-53.547.469,0L2265.729,267l-.653.451-179.853,124.2-.145-.191-94.955-125.446Zm274.522,2.241-273.585-1.735,94.779,125.212Zm-275.38-2.079-.67.675L1840.943,414.436l-.312-.057-.054-.12-42.769-94.929.279-.079ZM1840.9,413.766l146.163-147.36L1798.5,319.654Zm148.236-148.29.045.539L2004.4,446.968l-.326-.065L1841.3,414.513l.328-.331Zm14.709,180.872L1988.731,266.6,1842.315,414.2Zm261.973-179.137-.369.819L2163.223,494.7l-.254-.336-77.61-102.531.215-.148ZM2163.114,493.725l101.513-225.081-178.553,123.3ZM1990.726,267.27l.122.161,94.133,124.386-.215.148L2004.774,447.2l.377.238,232.785,146.889-1.044-.1-221.071-21.06-.062-.114-.2.11.261.476,83.022,151.586.2-.109L2016,573.492l.47.045,221.822,21.124-.4.379-138.615,130.5h0l-.038.036L2033.355,787.6l-.044-.516-18.058-214.475.015.028-10.541-125.461h0l-.031-.371-15.042-179.031ZM2084.267,391.7l-93.7-123.808-.389.183,14.976,178.254ZM2235.9,593.634l-230.586-145.5,10.448,124.354.2-.11.175.323Zm1.246,1.419-220.252-20.974,82.51,150.654ZM2098.476,725.6,2015.949,574.92l17.817,211.6Zm167.447-458.067-.118,1.442-26.581,324.99h-.218l-.39.337-.161-.213L2163.377,494.9l.061-.135Zm-27.164,325.984,26.43-323.14L2163.955,494.839l74.738,98.737ZM1797.585,319.4l.089.2,42.695,94.764-.405-.017-187.457-7.931.244-.369,36.942-55.849.048-.345.157-.044Zm41.995,94.427-42.274-93.829L1690.19,350.236l-.02.141-.077.109h0l-36.682,55.459Zm-149.955-63.943-.371.562L1652.243,406.4l-.141-.006-141.428-5.984,1.5-.424Zm-37.644,56.008,36.484-55.161L1513.815,400.04ZM2085.12,392l.145.191,152.859,201.988-1.162-.733L2005.186,447.2l.312-.215Zm150.947,200.289L2085.01,392.682l-78.917,54.5ZM1510.03,400.427l-.087.611-22.663,160.036-.2.015L1283.671,576.3l.654-.509Zm-23.188,160.179,22.52-159.026L1285.287,575.673Zm23.436-159.986.226.01,141.589,5.989-.244.369-98.657,149.162-.122.009-65.5,4.9.044-.307Zm140.91,6.461-140.479-5.943-22.559,159.373,64.76-4.842Zm1.171-.453.141.006,188.278,7.966L1712.166,544.266l-.093.007L1553.48,556.13l.281-.425Zm187.267,8.424-187.005-7.912-98.162,148.415,157.483-11.774Zm-840.072-1.01.586.611.013.076,51.86,315.58-.437-.216L824.421,617.555l.21-.244Zm.118.846-.1-.1L825.221,617.393l226.141,112.036Zm.756-.264,1.493.855L1283.1,576.453l-.294.229-73.274,56.93-.156-.163ZM1282.2,576.516,1003.167,416.768,1209.579,632.94Zm558.731-161.847.892.177,162.6,32.361.016.188,10.42,123.882h0l.155,1.832-5.223-.5,5.042-1.355-.443-.4Zm163.025,32.956-161.338-32.11L2014.255,570.06Zm10.508,124.93-.057-.668-1.819.489Zm-173.58-157.621.177.159,173.308,156.05-5.226,1.405-.045,0L1712.58,544.281l.372-.375ZM2013.352,570.9,1840.9,415.624l-127.226,128.26L2009.1,572.042ZM1000.426,414.953l.559.585,208.289,218.137-.137.373-.074.046L1052.249,730.3l-.06-.367Zm208.233,218.8L1001.182,416.468l51.439,313.016Zm503.11-89.228-.832.534L1490.378,686.423l-.1-.018-19.931-3.692v-.007l-.289-.055-2.617,18.484-.1.062L1291.4,813.98l-.119-.262L1209.5,634.33l.473.088,258.759,48.311.729.417.316-.548-1.205-.228-.036-.021L1283.681,576.524l.814-.061,202.756-15.155-.043.307-16.994,119.993-.315.478.126.084.14-.243-.043.307.271.182.121-.847.031-.047,82.778-125.154.122-.009ZM1490.274,685.895l219.56-140.722L1553.6,556.85l-82.611,124.9-.079.556Zm-20.541-4.467,16.935-119.575L1285.346,576.9l183.4,104.993.6.114Zm-1.175,1.778L1210.355,635l81.26,178.249,175.368-112.409,2.427-17.146Zm244.213-138.6.875.083,294.727,28.069-1.336.359L1817.512,624.07l-.1-.074Zm292.8,28.388-291.1-27.723,103.146,78.257Zm-293.256-28.376.23.174,104.6,79.371-.433.12,38.774,130.267-.9-1.3L1711.563,545.968ZM1816.11,624l-103.638-78.639-.321.578,141.96,205.73Zm-105.09-78.629.277.416-.094.065.048.07-.075.135L1619.861,710.6l-.177-.033-128.9-24.027.531-.341ZM1619.6,710.044l90.858-163.716L1492.112,686.281Zm91.84-163.852.229.331L1855.2,754.541l-.6-.111-234.465-43.772ZM1854.1,753.827l-142.62-206.688-90.567,163.155ZM1553.032,556.39l-.281.425-82.163,124.229.155-1.1,16.793-118.661Zm-81.639,122.529,80.659-121.954-64.078,4.789ZM191.273,572.6l.211.3,72.393,103.441-.177.147L146.715,773.647l-.128-.038L72.694,751.774l.187-.282ZM263.2,676.247,191.285,573.484l-117.8,178L146.6,773.092ZM2009.024,572.816l.045,0,5.963.568.017.208,17.985,213.984-.447-.339-214.843-163,.492-.132Zm5.545,1.031-5.5-.524-190.208,51.137L2032.442,786.5ZM190.68,573l-.809,1.222L72.368,751.678l-.48-.142.065.258,1.151.34,73.4,21.687-.36.3-17.978,14.935-.155-.1L71.5,751.658l.063.018-.1-.066L9.083,710.468l.282-.214ZM72.155,751.093l116.49-175.921L9.949,710.44l61.247,40.4-.008-.031Zm73.311,22.941-70.9-20.946,53.563,35.345ZM1283.31,576.575l.145.083,184.43,105.586L1209.4,634l.439-.341ZM1465.074,681.21,1283.353,577.175l-72.764,56.534ZM497.485,615.492l.2.166L688.624,775.484l-1.021-.238L421.071,713.135l.242-.308Zm189.21,159.029L497.56,616.208l-75.612,96.618Zm-189.526-159-.457.584-75.885,96.97-.155-.036L264.225,676.583l.977-.256ZM420.63,712.519l75.232-96.135-229.556,60.17Zm403.414-94.9.432.214,226.9,112.413-.824.1L845.428,756.018l-.037-.24ZM1049.66,729.958,824.685,618.5l21.162,136.965ZM823.9,618.167l.083.536L845.2,756.046l-.255.032-154.994,19.4-1.049-.447.223-.259ZM844.63,755.614l-21.061-136.3L689.73,774.839l.3.126ZM1817.4,624.351l.086.065,215.135,163.243-1.039-.194-175.82-32.823-.044-.146L1817,624.417ZM2030.63,786.779,1817.768,625.261l38.381,128.945ZM1208.956,634.488l-.272.694L1087.49,944.565l-.148-.9L1052.3,730.612l.133-.082h0l.394-.242Zm-121.268,308.2,120.258-306.994-154.463,94.778.421.2-.921.106-.135.084ZM1209.26,634.511l.245.537,81.645,179.093-.182.117L1087.823,944.464l.281-.718Zm81.255,179.443-81.22-178.162L1088.851,943.211ZM263.781,676.714l.433.1.055.079,77.416,110.614L306.28,820.8l-.138-.041L146.98,773.724l.36-.3Zm.133.545h0L148.02,773.51l158.127,46.729,34.88-32.8Zm.743-.339.636.148,155.345,36.2-.34.32-78.405,73.723-.166-.237Zm154.958,36.626L265.815,677.7l76.156,108.85ZM1470.3,683l.257.048L1490,686.689l-.531.34-21.682,13.891.075-.539Zm18.371,3.945-17.948-3.358-2.286,16.321Zm1.734-.177.1.018,129.177,24.074-.169.3-205.64,370.561.189-1.337,53.657-379.072.1-.062Zm128.5,24.457-128.4-23.929-22.328,14.317-53.435,377.507Zm-151.5-9.709-.076.539-53.76,379.917-.355-.778L1291.5,814.265l.182-.117Zm-54.092,378.692,53.444-377.683L1292.132,814.453ZM8.9,710.721l63.07,41.6-.138.209L-51.394,938.692l.388-1.469Zm62.376,41.742L9.21,711.522l-59.343,224.36Zm349.578-39.091.169.208L504.05,815.621l.177-.144L421.17,713.394l.712.166L687.27,775.4l-1.073.238L503.316,816.218h0l-121.543,26.97-.557-.246-.5-.148-.05-.072L342.025,787.5l.158-.148Zm82.591,102.3L420.811,714.1l-78.128,73.465,38.34,54.795.383.115.42.185Zm181.565-40.283L422.48,714.213l82.31,101.166Zm367.109-45.011-.985.6L860.407,848.039l-.812-.345-.021-.137-14.108-91.312.255-.032Zm-191.76,117.1,189.528-116.314L846.038,756.677l14.008,90.666ZM1052.1,730.758l.06.367,35.065,213.41-.418-.178-226.06-96.189.413-.253Zm34.485,212.961-34.858-212.145L861.835,848.087ZM72.159,752.573l.14.544,17.543,67.768-.122.1L-49.807,936.872l.935-1.412Zm17.12,68.13L71.956,753.785-47.52,934.323ZM72.407,752.622l.543.358,54.975,36.272-.26.215-37.63,31.256-.1-.381Zm54.68,36.676-53.87-35.543,17.105,66.08Zm718.148-33.026.037.24,14.072,91.075-.414-.176L690.372,775.656l.919-.115Zm13.477,90.5-13.9-89.946L692.273,775.922ZM146.766,773.9l.128.038,159.2,47.041-.317.3-53.1,49.934-.993-.655-.006-.008-.047-.031L128.367,789.184l.26-.215Zm158.347,47.311L146.88,774.455,129.2,789.138l122.2,80.636-.107-.566.727.978.59.389ZM689,775.324l-.149,1.209L665.32,967.528l-.307-.135-70-30.7.141-.242ZM664.905,966.8l23.3-189.118L595.729,936.464Zm23.061-191.233.508.107-.174.3-93.548,160.61-.2-.09-212.3-93.1.747-.166ZM594.544,935.946l93.07-159.789L383.845,843.55Zm95.222-160.214.061.026,169.57,72.16.048.316-.477.69-.045.027L665.537,967.619l.063-.515,23.566-191.3Zm169.078,72.493-169.15-71.981-.079.01L666.16,966.65l192.458-118.1ZM341.815,787.7l.166.237,38.307,54.734-.686-.2-73.071-21.591.317-.3Zm37.244,54.086-37.322-53.326-34.229,32.185Zm-250.935-52.4.155.1,123.9,81.745.073.408-.176.336-.114.025L111.388,903.2l-.061-.234-21.23-82,.122-.1Zm123.6,82.146L128.157,790l-37.5,31.143L111.75,902.6l139.97-31.064Zm54.622-50.475.138.041,74.014,21.872.312.431-.372.083L253.4,871.686l-.535-.347.232-.219Zm73.121,22.129-72.988-21.569-52.593,49.454ZM89.908,821.126l.1.381,21.158,81.739-.252.056L-51.44,939.335l1.195-1.8.028-.023Zm20.643,81.745-20.93-80.857L-49.869,937.868l-.47.71Zm271.318-59.4.077.034,212.691,93.272-.141.242-67.156,115.3-.224-.32L381.3,843.61Zm212.054,93.538L382.336,844.224,527.3,1051.394Zm-212.958-93.33.1.137,145.714,208.2-1.094-.721L253.744,871.905l.576-.128Zm143.9,206.478L380.746,844.242,255,872.138Zm333.657-200.6-.682.981-239.45,344.2.249-1.2,46.865-225.7.158.074ZM619.373,1192.447,856.743,851.24,665.955,968.323l-.039.269-.055-.026ZM252.2,871.253l1.213.8,273.836,180.654.109.175.1-.159.05-.03L665.191,968.2l-.118.566-46.969,226.2-.33-.52c-2.9-4.559-23.448-36.873-44.7-70.2-36.235-56.814-43.932-68.672-45.461-70.68l-.124-.163.151-.172-.054,0,0,0-.432.016L393.438,1058.2l-.078-.1Zm274.249,181.526-272.1-179.507L393.68,1057.695Zm91.412,140.88,46.6-224.423L528.452,1052.7l.324-.012-.646.737c1.8,2.454,9.994,15.1,45.362,70.55C594.07,1156.242,613.988,1187.558,617.865,1193.658ZM252.311,872.012l.13.743L285.513,1062.2l-.286.011-131.312,4.866.191-.378Zm32.611,189.711L252.078,873.584l-97.335,192.962ZM252.559,872.1l.624.826L393.16,1058.216l-.479.018L285.744,1062.2l-.037-.215Zm139.624,185.655-138.776-183.7,32.755,187.631ZM251.91,872.3l-.238.471L153.76,1066.878l-.167-.643L111.459,903.471l.253-.056Zm-98,193.169,97.077-192.452L112.073,903.847ZM594.9,936.9l.2.09L665.3,967.765l-.407.25L527.774,1052.16l.5-.859Zm69.321,30.944-69.114-30.307-65.9,113.163Zm-137.109,85.642-.383.436-48.917,55.765-.179-.109-84.006-51.149.832-.031Zm-49.4,55.555,48.258-55.013-130.663,4.839Zm49.666-55.513.183.26c5.231,7.446,88.815,138.894,89.658,140.22l.576.906-.917-.558L478.012,1109.8l.2-.224Zm88.843,139.842c-7.382-11.608-82.468-129.66-88.888-139.033l-48.556,55.351ZM393.4,1058.437l-.1.336-68.8,225.411-.18-1.031-38.534-220.733.286-.01Zm-68.773,223.6,68.09-223.074L286.375,1062.9Zm68.94-223.378.275.168,83.816,51.031-.2.224L324.733,1284.2l.339-1.112Zm83.323,51.316L393.86,1059.42l-67.97,222.7Z" transform="translate(61.838 -137.354)" fill="#b3b3b3"/><g transform="translate(0)"><path d="M888.238,330.1a12.084,12.084,0,1,1,2.57,16.916A12.065,12.065,0,0,1,888.238,330.1Z" transform="translate(1402.475 119.922)" fill="#999"/><path d="M785.516,194.385a12.089,12.089,0,1,1,2.549,16.942A12.075,12.075,0,0,1,785.516,194.385Z" transform="translate(1255.863 -73.786)" fill="#999"/><path d="M825.471,246.759a10.631,10.631,0,1,1,2.24,14.894A10.615,10.615,0,0,1,825.471,246.759Z" transform="translate(1313.296 1.809)" fill="#999"/><path d="M706.97,216.728a10.63,10.63,0,1,1,2.24,14.9A10.621,10.621,0,0,1,706.97,216.728Z" transform="translate(1144.163 -41.049)" fill="#999"/><path d="M588.124,250.12a12.092,12.092,0,1,1,2.583,16.875A12.088,12.088,0,0,1,588.124,250.12Z" transform="translate(974.14 5.766)" fill="#999"/><path d="M548.343,531.153a12.087,12.087,0,1,1,2.549,16.911A12.1,12.1,0,0,1,548.343,531.153Z" transform="translate(917.375 406.848)" fill="#999"/><path d="M-30.387,377.824a12.035,12.035,0,0,1,6.122-4.321,12.014,12.014,0,0,1,9.214.825,12.12,12.12,0,0,1,5.927,7.1,12.073,12.073,0,0,1-1.808,10.792,12,12,0,0,1-6.129,4.34,12.065,12.065,0,0,1-15.129-7.913A12.042,12.042,0,0,1-30.387,377.824Z" transform="translate(91.314 188.088)" fill="#999"/><path d="M183.234,518.835a12.045,12.045,0,0,1,21.248,3.57,11.975,11.975,0,0,1-1.8,10.78,11.774,11.774,0,0,1-6.119,4.333,12.037,12.037,0,0,1-15.129-7.894A11.9,11.9,0,0,1,183.234,518.835Z" transform="translate(396.215 389.267)" fill="#999"/><path d="M464.176,346.425a12.092,12.092,0,1,1,4.143,17.892,12.236,12.236,0,0,1-5.961-7.1A11.975,11.975,0,0,1,464.176,346.425Z" transform="translate(797.184 143.19)" fill="#999"/><path d="M495.411,322.6a8.621,8.621,0,1,1,2.954,12.755,8.72,8.72,0,0,1-4.25-5.063A8.555,8.555,0,0,1,495.411,322.6Z" transform="translate(842.743 111.205)" fill="#999"/><path d="M803.589,409.782a11.949,11.949,0,0,1,6.238-4.447,12.269,12.269,0,1,1-8.073,15.35A12.072,12.072,0,0,1,803.589,409.782Z" transform="translate(1281.597 233.517)" fill="#999"/><path d="M45.477,320.968A8.878,8.878,0,0,1,61.13,323.6a8.674,8.674,0,0,1-1.328,7.945,8.552,8.552,0,0,1-4.512,3.207,8.9,8.9,0,0,1-9.814-13.787Z" transform="translate(200.477 108.72)" fill="#999"/><path d="M75.613,363.9a8.858,8.858,0,0,1,15.651,2.614,8.879,8.879,0,0,1-5.85,11.153,8.878,8.878,0,0,1-9.8-13.768Z" transform="translate(243.48 169.952)" fill="#999"/><path d="M-3.736,395.056a8.913,8.913,0,0,1,4.512-3.238,8.929,8.929,0,0,1,11.161,5.862,8.878,8.878,0,0,1-5.85,11.141,8.943,8.943,0,0,1-6.8-.592,8.936,8.936,0,0,1-4.359-5.248A8.781,8.781,0,0,1-3.736,395.056Z" transform="translate(130.236 214.443)" fill="#999"/><path d="M174.483,421.512a9.057,9.057,0,0,1,4.515-3.24,8.938,8.938,0,0,1,11.151,5.855,8.806,8.806,0,0,1-1.325,7.966,8.956,8.956,0,0,1-11.3,2.592,8.9,8.9,0,0,1-3.037-13.173Z" transform="translate(384.609 252.213)" fill="#999"/><path d="M171.621,338.693a9.032,9.032,0,0,1,4.515-3.238,8.933,8.933,0,0,1,11.149,5.852,8.786,8.786,0,0,1-1.328,7.966,8.615,8.615,0,0,1-4.512,3.192,8.713,8.713,0,0,1-6.787-.6,8.891,8.891,0,0,1-3.037-13.173Z" transform="translate(380.521 134.009)" fill="#999"/><path d="M140.349,379.03a7.457,7.457,0,0,1,3.724-2.67,7.376,7.376,0,0,1,9.2,4.828,7.271,7.271,0,0,1-1.1,6.573,7.384,7.384,0,0,1-9.321,2.136,7.332,7.332,0,0,1-2.505-10.867Z" transform="translate(336.323 192.494)" fill="#999"/><path d="M107.8,409.573a7.326,7.326,0,0,1,12.918,2.158,7.264,7.264,0,0,1-1.095,6.571,7.379,7.379,0,0,1-9.321,2.138,7.333,7.333,0,0,1-2.5-10.867Z" transform="translate(289.862 236.086)" fill="#999"/><path d="M30.006,524.855a9.025,9.025,0,0,1,4.512-3.238,8.935,8.935,0,0,1,11.151,5.852,8.814,8.814,0,0,1-1.328,7.966,8.952,8.952,0,0,1-11.3,2.592,8.889,8.889,0,0,1-3.034-13.173Z" transform="translate(178.395 399.716)" fill="#999"/><path d="M84.056,522.9a10.224,10.224,0,0,1,5.112-3.665,10.117,10.117,0,0,1,12.619,6.624,9.98,9.98,0,0,1-1.5,9.017,10.134,10.134,0,0,1-12.792,2.937A10.062,10.062,0,0,1,84.056,522.9Z" transform="translate(255.21 396.243)" fill="#999"/><path d="M128.54,521.261a10.053,10.053,0,0,1,17.729,2.956,9.973,9.973,0,0,1-1.5,9.017,10.122,10.122,0,0,1-12.789,2.937,10.056,10.056,0,0,1-3.435-14.911Z" transform="translate(318.697 393.899)" fill="#999"/><path d="M-54.9,472.236a9.991,9.991,0,0,1,5.085-3.614,9.871,9.871,0,0,1,7.646.675,10.026,10.026,0,0,1,4.942,5.913,9.9,9.9,0,0,1-1.5,8.971,9.794,9.794,0,0,1-5.088,3.636,10.092,10.092,0,0,1-12.61-6.595A10.128,10.128,0,0,1-54.9,472.236Z" transform="translate(56.882 323.963)" fill="#999"/><path d="M249.81,404.527a11.894,11.894,0,0,1,6.119-4.357,12.07,12.07,0,0,1,15.129,7.906,11.933,11.933,0,0,1-1.818,10.787,11.73,11.73,0,0,1-6.114,4.386,12.094,12.094,0,0,1-15.134-7.947A11.931,11.931,0,0,1,249.81,404.527Z" transform="translate(491.226 226.15)" fill="#999"/><path d="M314.36,396.723a11.89,11.89,0,0,1,6.119-4.357,12.075,12.075,0,0,1,15.132,7.906,11.924,11.924,0,0,1-1.82,10.784,11.716,11.716,0,0,1-6.114,4.389,12.1,12.1,0,0,1-15.134-7.947A11.947,11.947,0,0,1,314.36,396.723Z" transform="translate(583.36 215.012)" fill="#999"/><path d="M333.012,308.212a9.179,9.179,0,0,1,4.736-3.362,9.335,9.335,0,0,1,10.294,14.471,9.119,9.119,0,0,1-4.726,3.379,9.349,9.349,0,0,1-10.3-14.488Z" transform="translate(610.739 90.287)" fill="#999"/><path d="M123.456,432.576a9.021,9.021,0,0,1,4.772-3.393,9.416,9.416,0,0,1,10.4,14.6,9,9,0,0,1-4.762,3.4,9.43,9.43,0,0,1-11.826-6.173A9.334,9.334,0,0,1,123.456,432.576Z" transform="translate(311.623 267.726)" fill="#999"/><path d="M70.51,444.258a10.148,10.148,0,0,1,5.3-3.765,10.449,10.449,0,0,1,11.539,16.192,10.066,10.066,0,0,1-5.284,3.782A10.467,10.467,0,0,1,70.51,444.258Z" transform="translate(235.765 283.802)" fill="#999"/><path d="M399.391,385.826a11.771,11.771,0,0,1,6.117-4.352,12.085,12.085,0,0,1,13.336,18.7,11.867,11.867,0,0,1-6.129,4.364,12.072,12.072,0,0,1-15.122-7.937A11.861,11.861,0,0,1,399.391,385.826Z" transform="translate(704.726 199.444)" fill="#999"/><path d="M497.946,420.552a11.68,11.68,0,0,1,6.129-4.345,12.066,12.066,0,0,1,13.314,18.68,11.808,11.808,0,0,1-6.119,4.381,12.091,12.091,0,0,1-13.323-18.717Z" transform="translate(845.403 249.027)" fill="#999"/><path d="M571.457,366.376a11.63,11.63,0,0,1,6.107-4.342A12.061,12.061,0,0,1,590.9,380.7a11.6,11.6,0,0,1-6.114,4.379,12.093,12.093,0,0,1-15.136-7.94A11.876,11.876,0,0,1,571.457,366.376Z" transform="translate(950.307 171.695)" fill="#999"/><path d="M589.007,458.183a11.8,11.8,0,0,1,6.11-4.352,12.067,12.067,0,0,1,13.323,18.69,11.82,11.82,0,0,1-6.117,4.376,12.1,12.1,0,0,1-15.144-7.947A11.916,11.916,0,0,1,589.007,458.183Z" transform="translate(975.348 302.723)" fill="#999"/><path d="M796.678,321.121a9.016,9.016,0,0,1,4.634-3.291,9.145,9.145,0,0,1,10.1,14.158,8.924,8.924,0,0,1-4.653,3.313,9.157,9.157,0,0,1-10.083-14.18Z" transform="translate(1272.597 108.804)" fill="#999"/><path d="M714.455,342.136a11.937,11.937,0,0,1,6.114-4.369,12.071,12.071,0,0,1,13.316,18.7,11.74,11.74,0,0,1-6.119,4.381,12.1,12.1,0,0,1-15.132-7.935A11.942,11.942,0,0,1,714.455,342.136Z" transform="translate(1154.402 137.086)" fill="#999"/><path d="M414.5,474.439a9.811,9.811,0,0,1,4.978-3.537,9.777,9.777,0,0,1,10.775,15.144A9.784,9.784,0,0,1,414.5,474.439Z" transform="translate(726.972 327.25)" fill="#999"/><path d="M320.761,434.728a9.764,9.764,0,0,1,12.418-2.862,9.747,9.747,0,0,1-1.626,17.981,9.776,9.776,0,0,1-10.792-15.12Z" transform="translate(593.156 270.598)" fill="#999"/><path d="M240.615,483.847A9.783,9.783,0,1,1,251.4,498.993a9.788,9.788,0,0,1-10.789-15.146Z" transform="translate(478.762 340.69)" fill="#999"/><path d="M221.148,577.6a9.783,9.783,0,1,1,10.789,15.144A9.787,9.787,0,0,1,221.148,577.6Z" transform="translate(450.975 474.507)" fill="#999"/><path d="M100.152,614.438a9.784,9.784,0,1,1,10.789,15.144,9.787,9.787,0,0,1-10.789-15.144Z" transform="translate(278.279 527.081)" fill="#999"/><path d="M305.955,339.779a9.8,9.8,0,0,1,17.219,2.889,9.876,9.876,0,0,1-1.456,8.724,9.863,9.863,0,0,1-12.42,2.857,9.554,9.554,0,0,1-4.8-5.755A9.71,9.71,0,0,1,305.955,339.779Z" transform="translate(572.022 135.068)" fill="#999"/><path d="M389.7,323.607a9.562,9.562,0,0,1,4.952-3.522,9.76,9.76,0,0,1,7.466.677,9.654,9.654,0,0,1,4.8,5.743,9.746,9.746,0,0,1-6.418,12.238,9.783,9.783,0,0,1-10.8-15.137Z" transform="translate(691.547 111.998)" fill="#999"/><path d="M378.49,255.443a9.765,9.765,0,1,1,15.7,11.61,9.515,9.515,0,0,1-4.927,3.524,9.782,9.782,0,0,1-7.469-.655,9.788,9.788,0,0,1-3.308-14.479Z" transform="translate(675.514 14.689)" fill="#999"/><path d="M672.342,309.442a7.834,7.834,0,0,1,9.884-2.267,7.841,7.841,0,0,1,2.7,11.551,7.632,7.632,0,0,1-3.986,2.818,7.8,7.8,0,0,1-9.772-5.1A7.7,7.7,0,0,1,672.342,309.442Z" transform="translate(1095.489 92.929)" fill="#999"/><path d="M606.843,314.472a7.834,7.834,0,0,1,9.886-2.265,7.8,7.8,0,1,1-9.886,2.265Z" transform="translate(1002.005 100.11)" fill="#999"/><path d="M633.916,377.892a8.849,8.849,0,0,1,4.568-3.272,9.106,9.106,0,0,1,6.9.612,9.221,9.221,0,0,1,4.43,5.34,8.9,8.9,0,0,1-1.34,8.059,9.046,9.046,0,1,1-14.561-10.738Z" transform="translate(1040.304 189.887)" fill="#999"/><path d="M724.883,255.936A9.06,9.06,0,0,1,739.462,266.7a9.06,9.06,0,1,1-14.578-10.763Z" transform="translate(1170.147 15.82)" fill="#999"/><path d="M857.85,289.106a8.948,8.948,0,0,1,4.58-3.272,9,9,0,0,1,11.321,5.927,9.028,9.028,0,0,1-5.92,11.357,9.047,9.047,0,0,1-9.981-14.013Z" transform="translate(1359.932 63.156)" fill="#999"/><path d="M900.232,195.134a8.95,8.95,0,0,1,4.583-3.272,9.006,9.006,0,0,1,11.321,5.927,9.028,9.028,0,0,1-5.92,11.357,9.047,9.047,0,0,1-9.984-14.013Z" transform="translate(1420.426 -70.971)" fill="#999"/><path d="M831.427,384.095a9.07,9.07,0,0,1,11.5-2.641,9.155,9.155,0,0,1,4.439,5.318,9.087,9.087,0,0,1-5.942,11.355,9.089,9.089,0,0,1-11.34-5.932A8.966,8.966,0,0,1,831.427,384.095Z" transform="translate(1322.219 198.748)" fill="#999"/><path d="M731.169,396.074a8.783,8.783,0,0,1,4.558-3.25,9.038,9.038,0,0,1,11.343,5.93,9,9,0,0,1-5.93,11.331,9.036,9.036,0,0,1-9.971-14.01Z" transform="translate(1179.1 215.864)" fill="#999"/><path d="M662.98,229.4a7.463,7.463,0,0,1,3.949-2.8,7.711,7.711,0,0,1,5.959.5,7.86,7.86,0,0,1,2.66,11.571,8.108,8.108,0,0,1-3.974,2.82,7.809,7.809,0,0,1-8.6-12.1Z" transform="translate(1082.146 -21.325)" fill="#999"/><path d="M647.757,252.624a7.446,7.446,0,0,1,3.951-2.8,7.706,7.706,0,0,1,5.957.5,7.864,7.864,0,0,1,2.663,11.573,8.151,8.151,0,0,1-3.976,2.818,7.808,7.808,0,0,1-8.595-12.1Z" transform="translate(1060.42 11.819)" fill="#999"/><path d="M675.162,145.408a8.448,8.448,0,0,1,4.481-3.17,8.732,8.732,0,0,1,6.75.573,8.911,8.911,0,0,1,3.017,13.117,9.212,9.212,0,0,1-4.505,3.2,8.854,8.854,0,0,1-9.743-13.717Z" transform="translate(1099.244 -141.811)" fill="#999"/><path d="M792.8,269.421a7.818,7.818,0,0,1,9.906-2.245,7.826,7.826,0,0,1,2.665,11.549,8.079,8.079,0,0,1-3.964,2.821,7.823,7.823,0,0,1-8.607-12.124Z" transform="translate(1267.429 35.824)" fill="#999"/></g></g><path d="M3418.695,151.527l-.126.022L3341.624,38.91l-.454-2.126L3289.14,161.828l-60.393,4.677-160.84-39.657-2.085-2.459,65.58,219.039-67.345,179.634L2830.1,660.619l-.415-.153-.131.473-.138.08.015.245L2688.33,931.43l-68.554,20.853-137.251-230.92,1.012-1.566-1.553.643-.663-1.1-.284,1.5-122.707,50.6-46.014-39.395L2226.63,590.269l.265-3.221L2118.383,788.307l-174.641,79.4-262.7-68.18-.182-.393-.432.245-.158-.051-.2.25L1453.315,925.109l-.325-.039-.1.269-.252.143.075.313-94.538,244.122-168.825,217.954L1099.6,1336.6l3.437-.032-5.573-1.279-95.252-255.113-.369-1-206.97,186.5-104.483-44.468-1.519-61.262-.017-.636-183.734-17.093L470.775,902.327l99.934-206.56.517-1.068-215.291,5.993L403.02,526.031l1.726-1.284L161.077,537.811l45.1,132.256L158.366,705.5l0-2.694-1.333,3.675-.357.265.168.274L51.825,997.081l-180.493,49.257,2.41-2.454-4.85,3.032L-378.849,933.876l-.966-.434-14.476,278.214L-499.617,1254.1l-44.39-42.245-.469-.439-140.846,116.872.056-.272-1.4,1.347-157.919-41.55-.185-.041L-990.859,1325.6l236.9,70.1.123.034,24.7,134.159-.447,2.119,98.232-93.223,56.738,20.052-1.163,305.169,1.245-1.905,169.415-104.747-36.722-97.293.168-.252-.2-.153,28.317-222.99L-279.2,1199.745l153.82-17.654,7.127,149.611,109.366-162.98.109-.02.087-.226L229.786,978.66l71.127,8.719,31.9,266.73-1.566,1.022,1.692.036.153,1.284.864-1.257,132.678,3.474,26.106,54.66,20.892,164.323-1.546,2.837,180.758-140.023,191.831-1.818,212.546,168.767,0,.442.5-.043.124.1.284-.136,258.159-22.875.291.165.2-.206.393-.031v-.362L1542.123,1300l1.061.743-.345-1.461,2.638-2.631-2.939,1.371L1479.52,1032.5l82.441-94.844,186.127,19-3.129,1.43,5.612-1.09,190.46,194.623.738.765,113.643-254.363,113.546-1.694,26.212,55.391.274.583,175.085-58.888L2502.754,988.9l.155.442.514-.16,146.645,16.9.483.816.223-.442L2863.821,1151.1l1.583,3.59-21.841-312.217,145.053-118.163-1.214,3.214,3.2-4.736,272.3,2.947,1.066.022L3164.46,465.533l79.1-81.479,58.3,20.843,82.166-165.444,161.248-26.006.182-.029,118.228-93.8Zm1.823,1.221,238.188-31.018-113.656,90.154Zm-3.454-.85-50.495,3.918L3342.414,42.631ZM3340.723,41.612l24.392,114.316-74.355,5.77ZM3266,360.934l114.833-118.306L3301.342,402.7Zm-.937-1.1-38.035-44.953,63.115-151.689,75.282-5.838,17.333,81.224ZM3163.788,463.116,3133.2,344.6l69.54,24.86Zm-30.576-120.054,45.487-83.055,46.645,55.133L3203.3,368.126Zm93.188-26.691,37.65,44.492-20.885,21.508-38.5-13.76Zm-.425-2.736-46.541-54.988,49.7-90.725,59.391-4.6Zm1.626-145.924-49.162,89.759L3069.5,128.73Zm-49.9,91.111L3132.362,341.6l-63.173-210.992Zm-45.653,87.033,30.744,119.163L3066.043,521.9ZM3161.237,467.6,2993.045,716.593l72.19-192.55ZM2827.5,668.083l-69.6,242.188-67.636,20.571ZM2689.333,932.641l66.158-20.127-102.561,89.812Zm-1.942.583-36.921,70.7-29.931-50.369Zm-39.426,69.311-53.383-41.082,24.53-7.457Zm-54.789-42.157L2457.22,855.759l-.1-.082,24.909-132.312,136.326,229.35ZM2457.641,857.9,2591.479,960.89l-87.669,26.671Zm-256.356,36.5,4.9-58.677,151.88-62.632,57.369,49.111-45.177,69.685Zm164.75-1.007-169.4,56.978,4.539-54.524Zm-247.2-103,31.586,66.763-93.771,38.681Zm1.075-1.08,90.9-26.562-6,71.969L2151.753,856.6Zm84.776,47.026-4.835,58.078-29.982.454-17.494-36.963Zm211.849-13.192,38.633,33.069-82.635,34.8Zm39.267,31.708-38.47-32.931,62.954-97.121Zm24.008-131.96-63.588,98.075-56.66-48.5ZM2206.317,834.112l5.978-71.787,99.291-29.011,45.25,38.732Zm104.34-102.038-98.235,28.71,14-168.066ZM2224.88,593.833l-13.942,167.393-90.577,26.465ZM2117.123,790.477l-62.527,106-108.636-28.191Zm-65.447,106.73-295,57.141,187.2-85.111ZM1453.3,928.272l24.647,103.842-116.971,134.571Zm-95.228,244.135-1.6,212.771-94.422,44.225-71.438-40.8Zm-262.3,162.5-299.258-68.77,204.713-184.455ZM219.929,705.925l134.1-3.736-59.767,221.7Zm71.693,214.708-132.7-213.019,59.5-1.651Zm130.918,83.222,80.676,138.288-90.96-1.689Zm-.852-3.384-125.94-74.127,162.818-99.1L469.285,902.1ZM327.664,989.2l-25.453-3.122L295.5,930.01ZM296.219,928.3l122.418,72.059L329.424,989.42Zm125.005,73.831-10.335,137.234-80.615-148.38Zm80.9,141.436-67.734,44.23-21.918-45.9Zm2.435.143,155.48,66.161L631.8,1261.534l-164.238-4.292L435.019,1189.1Zm4.471.328,177.957,16.554L660.737,1208.6Zm152.349,66.406,27.586,11.736,1.012,40.878-56.558-1.481ZM690.01,1264.5l1.842,74.423-93.861-12.552L632.639,1263Zm1.444.039,101.4,2.631-99.575,71.195Zm399.35,70.709-205.625,1.947-87.22-69.26ZM791.238,1265.7l-99.817-2.609-1-40.305Zm-129.161-56.537,25.411-46.492,1.435,57.91Zm-158.835-69.835-80.428-137.87,46.837-96.805Zm65.651-443.121L470.408,899.768l-10.566-73.807-.16-1.087L295.508,924.8,355.534,702.15Zm-214.47,4.527-134.979,3.755L207.887,670.6,401.146,527.415ZM163.063,539.153l236.967-12.7L207.4,669.168Zm43.606,132.353,11.265,33.026-58.017,1.617Zm-48.306,37.943L293.236,925.942l-135.207,42.13Zm-1.449,1.609-.33,257.441L53.533,996.62ZM52.927,998.282l102.344-27.928-162.5,194.091Zm-62.52,168.454-120.059-118.629L51.223,998.746Zm-368.89-231.1,245.909,112.2L-392.8,1210.821ZM-510.9,1324.483l41.628-39.516,53.927,51.318-75.244,57.495Zm66.942,233.566L-572.7,1458.341l81.319-62.127Zm-241.867-227.357,156.728-63.161,16.564,56.5-119.166,113.1-71.195-25.169Zm-18.443,80.785-47.944-16.95,64.568-62.216ZM-529.5,1266.136l-152.929,61.626,137.542-114.126Zm1.752.854,27.81-11.214,29.623,28.193-41.036,38.951Zm113.024,67.891-53.5-50.91,73.569-69.833Zm278.881-283.289-144.016,146.786-110.648,12.69Zm-261,162.638-72.425,68.746-29.2-27.788ZM-528.154,1265.6l-14.906-50.847,41.965,39.938Zm-225.233,128.062L-842.7,1289.8l154.825,40.74Zm-91.633-104.335,89.892,104.526-230.328-68.161Zm92.7,106.7,47.747,16.877-23.782,113.265Zm25.1,131.76,24.025-114.4,70.311,24.855Zm97.048-90.111,118.09-112.085,20.256,69.127-82.2,62.806Zm57,22.125,129.559,100.339-130.7,199.016Zm.524,299.452,129.756-197.567.534,1.823.068-.551,35.4,93.8Zm129.729-202.8-47.24-161.184,74.986-57.3Zm29.766-222.243,20.176-121.4,111.5-12.8Zm135.564-136.1L-131.7,1049.42l6.25,131.227Zm160.572,129.161-6.925-145.346,113.167-12.988Zm-6.991-146.79-6.238-130.935L-10.882,1167.5Zm119.845-17.457L157.6,969.815l70.173,8.6Zm233.52-185.872-68.62-8.408L290.874,928.2Zm2.01.247,62.408-49.674,6.959,58.175Zm71.02,10.163,26.122,3.194,81.894,150.737.063.114-76.394,110.876Zm108.954,155.322,21.824,45.7-96.907,63.27Zm-75.426,110.922L433.8,1189.9,465.94,1257.2Zm295.1,9.148-34.56,63.2-102.531-13.707-25.671-53.745Zm-136.734,51,101.432,13.559-80.9,147.977Zm22.389,161.155,80.574-147.385,93.541,12.5ZM694.877,1339l100.109-71.578,87.9,69.8Zm402.333,166.565L886.973,1338.622l209.232-1.985Zm.442-168.408,90.807,51.871-89.807,115.947Zm92.069,52.595,70.731,40.4-160.106,75Zm-87.771,116.238,160.036-74.96,92.111,52.624Zm253.8-23.057-92.164-52.655,92.885-43.495Zm1.447-.52.723-96.315,180.692-84.635Zm.733-97.914,1.592-212.842,181.086,127.275Zm182.979-87.123-181.022-127.236,118.471-136.3Zm-61.8-266.6L1454.4,926.667l105.8,10.806Zm82.259-94.635L1455.83,925.359l221.473-122.6Zm118.964-134.669,69.311,153.9-186.518-19.047Zm1.471-.25,259.854,67.433-190.477,86.6Zm259.516,348.634-189.05-193.19,301.452-58.4Zm117.405-253.324,92.313-38.067,17.243,36.436Zm141-.655-4.4,52.794-24.78-52.361Zm172.388-3.107,83.839-35.315L2501.9,986.5Zm134.775,95.356,85.99-26.154,55.128,42.422Zm144.8,17.2,106.546-93.3,104.488,236.571Zm211.7,141.212L2759.372,911.062l82.821-67.469Zm-21.323-304.717-82.237,67,69.908-243.292Zm-11.1-179.336,157.827,59.8L2843.441,840.715Zm.862-1.214,231.42-136.062L2989.8,721.127Zm159.745,60.075,171.864-254.46,98.422,257.383Zm174.173-259.218,38.359-92.188,37.958,13.566Zm99.245-100.16,34.215,40.441-54.544-19.511Zm101.883-204.737,50.7-3.937-33.817,83.052Zm52.131-3.612,123.741,58.753-158.053,25.506Z" transform="translate(995.379 -29.086)" fill="#b3b3b3"/><path d="M3341.207,36.366l.534,2.495,76.885,112.551.052-.009,245.43-31.968-.353.28L3545.5,213.536l-.214.034-161.184,26-82.187,165.486-.1-.038L3243.589,384.2,3164.6,465.563l99.547,260.321-1.251-.026-272.232-2.946-3.762,5.564,1.427-3.777L2843.692,842.528l21.886,312.867-1.857-4.213-212.9-144.545-.262.518-.568-.958-146.557-16.891-.6.188-.182-.519-132.14-95.424-175.13,58.9-.047-.1-.274-.583-26.178-55.318-113.386,1.692-113.687,254.459-.866-.9L1750.529,957.135l-6.578,1.277,3.667-1.675-185.6-18.95-82.356,94.746,62.967,265.314,3.446-1.607-3.093,3.084.4,1.714-1.244-.871L1357.3,1484.52v.425l-.462.037-.238.241-.341-.193-258.1,22.869-.335.16-.146-.12-.586.051,0-.518-212.464-168.7-191.745,1.817-181.2,140.363.285-.525,1.527-2.8-20.884-164.262-26.064-54.573-132.533-3.47-1.013,1.475-.179-1.506-1.988-.042,1.839-1.2L300.8,987.491l-70.978-8.7L-8.583,1168.553l-.1.26-.126.022-109.547,163.25-.018-.378-7.12-149.478-153.643,17.633-134.3,136.869-28.3,222.877.238.18-.2.3,36.736,97.33-.088.054L-574.438,1762.2l-1.461,2.235,0-.422,1.163-305.08-56.582-20-98.469,93.446.525-2.488-24.684-134.057-.048-.013-237.334-70.234.437-.113,146.123-37.842.029.007.185.041,157.856,41.533,1.634-1.578-.065.319,140.658-116.715.549.515,44.333,42.189,105.176-42.381,14.482-278.316,1.132.509,247.681,113.011,5.688-3.556-2.826,2.878L51.729,996.977,156.708,707.031l-.2-.32.418-.311,1.563-4.309,0,3.159,47.542-35.229L160.905,537.695l.165-.009L405.152,524.6l-2.024,1.505L356.1,700.562l215.329-5.994-.607,1.253L470.9,902.347,505.225,1142.1,688.972,1159.2l.02.746,1.517,61.182,104.335,44.406,207.048-186.569.433,1.168,95.228,255.05,6.54,1.5-4.035.037,89.256,50.989,168.748-217.854,94.517-244.068-.088-.367.295-.167.12-.319.382.046,226.7-125.5.243-.3.187.06.5-.285.214.463,262.6,68.154,174.562-79.368,108.776-201.747-.31,3.776,85.655,141.717,45.941,39.332,122.573-50.542.333-1.757.776,1.294,1.823-.755-1.187,1.836,137.162,230.77,68.41-20.809L2829.3,661.239l-.017-.288.161-.093.154-.555.486.179,233.868-137.5,67.315-179.553-65.74-219.571,2.445,2.884,160.78,39.642,60.3-4.67Zm77.3,115.319-.045-.066L3341.506,38.961l-.005-.024-.371-1.734-51.9,124.745-.076.006-60.413,4.679-.02-.005-160.879-39.666-.026-.031-1.7-2,65.421,218.506-.015.039-67.361,179.675-.038.022L2830.113,660.757l-.343-.126-.108.392-.116.067.012.2-.017.031L2688.417,931.534l-.05.015-68.648,20.882-.05-.084L2482.378,721.359l.042-.065.795-1.229-1.283.531-.549-.915-.236,1.244-.062.025-122.777,50.626-.058-.05-46.03-39.408-.011-.017L2226.5,590.3l0-.04.215-2.626L2118.473,788.4l-.038.017-174.682,79.423-.042-.011-262.756-68.2-.149-.323-.362.205-.128-.042-.165.2-.021.012L1453.341,925.238l-.268-.032-.083.22-.21.119.062.259-.014.036-94.545,244.139-.011.014-168.892,218.04-.094-.054-90.154-51.5,2.841-.026-4.607-1.057-.024-.063L1001.786,1079.4,794.894,1265.826l-.073-.031-104.557-44.5,0-.081-1.533-61.787-183.722-17.092-.013-.1L470.645,902.306l.017-.035L571.024,694.829l-215.253,5.992.043-.162,47.1-174.7.035-.026,1.394-1.037-243.09,13.033,45.08,132.186-.073.055L158.24,705.746V705.5l0-1.982-1.1,3.041-.295.219.139.227-.021.057L51.92,997.184l-.062.017-180.94,49.379,1.994-2.03-4.011,2.507-.061-.028L-378.9,933.99l-.8-.359-14.472,278.11-.074.03-105.4,42.471-.058-.055-44.39-42.244-.387-.363-141.034,117.027.046-.225-1.156,1.117-.068-.018-157.919-41.551-.15-.034-145.629,37.714,236.663,70.031.014.077,24.708,134.183-.005.024-.364,1.726,98-93,.073.026,56.821,20.081v.089l-1.161,304.747,1.03-1.576.023-.015,169.327-104.693-36.708-97.257.138-.208-.166-.125.009-.072,28.322-223.032.029-.03,134.386-136.962.044,0,153.952-17.669.006.134,7.109,149.234L-8.958,1168.608l.092-.016.075-.192.026-.021L229.749,978.529l.052.006,71.224,8.731.012.1,31.914,266.807-.065.042-1.227.8,1.4.03.127,1.063.715-1.04.068,0,132.755,3.475.033.069,26.114,54.678,0,.02,20.9,164.363-.019.036-1.26,2.312L692.8,1340.34h.042l191.875-1.819.035.028,212.594,168.8,0,.365.414-.036.1.083.233-.111.022,0,258.2-22.878.242.137.168-.171.325-.026v-.3l.037-.036,185.019-184.538.878.615-.285-1.21.049-.049,2.134-2.128-2.433,1.135-.035-.149-63.032-265.588.042-.048,82.483-94.894.065.007,186.584,19.05-2.591,1.184,4.646-.9.047.048,190.459,194.623.61.631L2055.33,897.9h.08l113.627-1.7.034.073,26.439,55.873,175.041-58.874.052.038,132.256,95.508.128.365.425-.132.026,0,146.707,16.908.4.672.184-.365.118.08,213.076,144.665.014.033,1.294,2.935-21.8-311.567.051-.041L2988.9,723.919l-1,2.649,2.642-3.908h.067l272.3,2.947.882.018L3164.315,465.5l.056-.057,79.151-81.537.076.027,58.194,20.805,82.146-165.4.063-.011,161.4-26.03,117.849-93.5L3418.71,151.651h0ZM3340.762,41.193l.083.392,24.421,114.455-.143.011-74.558,5.785.078-.189Zm24.2,114.62L3340.684,42.03l-49.731,119.527Zm-22.8-113.777.358.524,74.772,109.445-.216.017-50.6,3.926-.023-.107Zm74.679,109.753-74.17-108.565,24,112.458Zm242.3-30.243-.353.28-113.716,90.2L3545,212,3420.08,152.678l.421-.055Zm-114.1,90.191,113.241-89.826-237.32,30.905Zm-475.881-83.222.375.092,158.262,39.021-.078.142-49.249,89.918-.118-.139Zm158.261,39.278-157.573-38.851,108.576,128.308ZM3068.9,130.068l.387.458,108.563,128.282-.041.075-45.478,83.038-.086-.286Zm108.649,128.771L3069.481,131.144,3132.4,341.276Zm240.219-105.675-.076.187-33.971,83.429-.085-.4-16.911-79.255.142-.011Zm-33.972,82.769,33.587-82.488-50.354,3.91Zm35.146-82.473.119.056,124.1,58.925-.4.064-158.273,25.541.083-.206Zm123.39,58.863L3419.071,153.8l-34.178,83.93Zm-176.81-55.105.023.107,17.346,81.289-.046.048L3265.052,360.015l-.089-.105L3226.879,314.9l.029-.071,63.144-151.759.077-.006Zm17.1,81.318-17.3-81.052-75.1,5.823-63.056,151.548,37.9,44.79Zm-93.9-75.357-.078.189-62.625,150.506-.132-.156-46.6-55.053.041-.075,49.728-90.784.068-.005ZM3225.938,313.4l62.389-149.94-59.121,4.584-49.622,90.59ZM3381.3,241.966l-.356.718L3301.37,402.926l-35.543-42,.079-.081Zm-79.982,160.508,79.046-159.186-114.2,117.651ZM3178.677,259.788l.118.139,46.694,55.192-.029.071-22.088,53.094-.112-.04-70.228-25.114.071-.128Zm46.522,55.376-46.478-54.936-45.33,82.766,69.84,24.975Zm1.163.971.132.156,37.724,44.579-.079.081L3243.2,382.516l-.076-.027-38.628-13.8.051-.122Zm37.519,44.724-37.445-44.25-21.61,51.93,38.3,13.689ZM3133.021,344.4l.222.079,69.663,24.9-.051.122-39.1,94-.094-.361Zm69.553,25.131-69.193-24.737,30.434,117.93Zm-70.509-24.089.1.384,30.768,119.254-.081.048L3065.8,522.184l.124-.331Zm30.578,119.518-30.622-118.688-65.737,175.34ZM3265,361.792l.089.105,34.516,40.8-.438-.156-54.727-19.576.136-.14Zm33.813,40.353-33.826-39.981-20.1,20.693Zm-94.776-32.353.113.04,38.14,13.632L3165.379,462.7Zm37.8,13.776-37.663-13.461-38.061,91.473Zm-78.369,83.059.085.224L3262.042,724.4l-.184,0-270.518-2.925.13-.192Zm98.208,257.525-98.271-256.987-171.6,254.069Zm-100.029-256.94-.309.458-168.784,249.87.371-.99,72.206-192.591.038-.022ZM2993.533,715.647l167.291-247.66-95.487,56.142Zm69.958-190.715-.124.331-73.494,196.026-.117-.044L2831.541,661.3l.225-.132Zm-73.764,196.034L3063.008,525.5l-230.891,135.75ZM400.437,526.3l-.333.248L207.334,669.37l-.055-.162L162.891,539.037l.165-.009ZM207.46,668.966,399.62,526.6,163.234,539.269ZM401.36,527.1l-.094.347L354.52,700.86l-.093,0L219.355,704.62l-.03-.087L207.74,670.555l.073-.055ZM354.327,700.615l46.605-172.886-192.9,142.918,11.5,33.719Zm1872-108.292.2.33,84.319,139.495-.156.046-98.41,28.761.015-.182ZM2310.465,732l-83.951-138.886-13.953,167.5Zm-85.411-138.754-.049.6-13.95,167.479-.082.024-90.864,26.549.142-.264ZM2210.82,761.13l13.886-166.711L2120.613,787.487Zm620.009-98.822.182.069,158.03,59.875-.168.137-145.54,118.575-.017-.241Zm157.718,60.024L2831.106,662.68l12.443,177.786Zm-158.738-57.507.05.706,12.333,176.354-.051.041L2759.6,909.181l.111-.384Zm12.124,176.948-12.275-175.519-69.6,242.229Zm-13.973-174.843-.342,1.189L2758,910.371l-.065.019-67.922,20.658.138-.264ZM2757.8,910.171l69.236-240.936-136.522,261.4ZM206.732,671.3l.055.162,11.319,33.187-.169,0-58.414,1.628.319-.236Zm11.029,33.108-11.155-32.7-46.3,34.3ZM569.1,696.08l-.09.185L470.342,900.191l-.058-.405-10.566-73.807-.132-.9L295.305,925.068l.082-.3,60.051-222.738.093,0ZM470.474,899.346l98.218-203-213.061,5.932L295.709,924.529l164.069-99.859.187,1.274ZM354.191,702.06l-.043.162L294.274,924.314l-.132-.388L219.756,705.8l.169,0Zm-59.945,221.4,59.617-221.139L220.1,706.045ZM218.508,705.836l.029.087,73.554,215.7-.576-.925L158.7,707.5l.218-.006Zm72.644,213.808L218.331,706.091l-59.188,1.642ZM158.238,709.013l.23.37L293.428,926.013l-.155.048L157.9,968.242v-.17ZM293.044,925.87,158.487,709.884,158.153,967.9Zm-136-215.527v.715l-.33,257.536-.092.025L53.334,996.8l.082-.227Zm-.581,258.06.329-256.631L53.733,996.435ZM2480.132,722.635l-.218.336-63.665,98.194-.108-.093-56.815-48.632.189-.078Zm-63.938,98.155,63.292-97.619L2359.8,772.516Zm65.772-97.774.169.284,136.407,229.487-.153.046-25.239,7.682-.051-.039L2457.144,855.858l-.162-.131.013-.073Zm136.2,229.625L2482.089,723.714l-24.834,131.913.044.036,135.9,104.578Zm-137.64-228.431-.117.624L2455.884,855.1l-.164-.141-38.553-33,.059-.092Zm-24.807,130.417,24.327-129.216-62.55,96.5Zm-144.1-121.452.051.044,45.4,38.864-.189.078-150.708,62.144.017-.2,5.985-71.872.083-.024Zm44.983,38.833-45.043-38.555-99.144,28.968-5.954,71.5Zm-145.651-9.42-.015.182-6,72.045-.071.029-53.171,21.92-.051-.107-31.907-67.414.141-.041Zm-6.253,72.054,5.974-71.711-90.585,26.47,31.731,67.042Zm153.391-61.69.058.05,57.452,49.182-.059.092-45.212,69.741h-.067l-169.109,2.515.011-.138,4.9-58.753.071-.029Zm57.182,49.279-57.228-48.99L2206.3,835.815l-4.88,58.464,168.766-2.509Zm-296.421-32.1.1.213,31.642,66.882-.122.05L2056.353,896.1l.189-.321Zm31.4,66.964-31.429-66.431-61.875,104.92Zm-32.819-66.9-.2.341-62.575,106.078-.091-.024-108.978-28.279.321-.146Zm-62.9,106.13,62.278-105.575-170.481,77.5Zm-372.954-95.291.252.065,260.2,67.521-.321.146-190.591,86.656-.052-.115Zm259.7,67.651-259.259-67.278L1751.243,955.1Zm-260.918-67.444.081.178,69.4,154.092-.216-.022-186.757-19.071.158-.182Zm69.075,153.978L1680.3,801.7,1563.378,936.223Zm-71.579-152.911-.465.534L1561.421,936.275l-.065-.007-105.935-10.825.349-.193Zm-116.545,133.7,115.428-132.8-220.506,122.06Zm855.19-113.045.108.093,38.787,33.2-.187.079L2372.207,891.3Zm38.425,33.22-38.371-32.845-43.7,67.409Zm-1996.27-29.15.027.188,10.725,74.892-.017.035-47.656,98.5-.117-.069L295.5,926.346l.179-.109Zm10.493,75.04-10.687-74.629L295.992,926.343,421.634,1000.3Zm1735.671-65.923-.017.2-4.845,58.191h-.114l-30.062.456-.034-.073-17.55-37.082.122-.05Zm-5.093,58.148,4.809-57.761-52,21.441,17.4,36.772ZM2842.3,843.345l.017.24,21.242,303.666-.289-.654L2759.219,911.026l.074-.061Zm20.91,302.5-21.126-302L2759.525,911.1Zm-407.184-288.55.044.125,46.083,129.425-.325-.235-129.968-93.862.205-.086Zm45.623,128.878L2455.88,857.625,2372.368,892.8Zm-44.269-128.622.336.259,134.031,103.133-.232.071-87.783,26.706-.04-.112Zm133.83,103.294L2457.9,858.262l45.987,129.145ZM2151.1,858.307l.051.107,17.326,36.612-.194,0-110.212,1.641.607-.25Zm16.985,36.475-17.109-36.154-91.6,37.773Zm-224.221-25.677.042.011,108.336,28.109-.542.105-296.038,57.341.962-.437ZM2051.11,897.19l-107.224-27.82-186.2,84.655Zm315.724-3.928-.76.255-169.581,57.039.016-.189,4.548-54.637h.114ZM2196.775,950.2l168.462-56.663-163.949,2.441Zm3.088-54.445-.011.138-4.439,53.256-.2-.42-24.864-52.538.194,0ZM2195.24,948.2l4.351-52.193-28.849.427Zm-141.305-50.1-.1.219-112.478,251.761-.129-.131L1752.018,956.59l.228-.044ZM1941.28,1149.64l112.23-251.206-300.988,58.313ZM469.717,904.234l.058.405,33.682,235.308-.323-.552-80.462-137.928.029-.06Zm33.311,234.483L469.586,905.079l-46.63,96.376ZM2758.276,911.83l.068.155,104.665,236.969-.361-.245-211.168-143.364.122-.107Zm104.152,236.428L2758.185,912.242l-106.3,93.079ZM2756.01,912.225l-.437.383-103.062,90.252.31-.592,36.426-69.732.05-.015Zm-102.66,89.568,101.621-88.99-65.553,19.943ZM1454.241,926.525l.175.018,106.042,10.83-.158.182-81.255,93.489-.056-.237Zm105.714,11.048L1454.565,926.81l24.61,103.7ZM293.875,927.488l.026.223,6.978,58.333-.158-.019-69.663-8.537.234-.185Zm6.718,58.269-6.913-57.794-62,49.349Zm1152.737-57.906.093.392,24.662,103.9-.042.048L1360.6,1167.307l.258-.667Zm24.482,104.23-24.539-103.389-91.921,237.372ZM291.474,927.878l-.522.416L229.4,977.283l-.052-.006-69.2-8.479.555-.173Zm-62.152,49.144,60.952-48.508L161.331,968.691Zm66.572-49.062.388.229,122.935,72.364-.6-.073-89.276-10.943-.031-.057Zm122.161,72.2L296.544,928.633,329.5,989.3ZM295.3,929.377l.312.574,32.278,59.407-.241-.029L302.1,986.2l-.012-.1Zm32.138,59.673L295.7,930.643l6.62,55.328Zm2360.2-56.033-.138.264-37.025,70.9-.115-.192-30.012-50.506.152-.046Zm-37.177,70.655,36.68-70.242-66.415,20.2ZM-378.6,935.444l.167.076,246.12,112.3-.2.123-260.434,163.11.012-.24Zm245.761,112.411L-378.368,935.824l-14.3,274.763Zm2752.006-94.007,29.236,49.184-.517-.4L2594.312,961.4Zm28.354,48.189-28.469-47.893-24.2,7.357Zm-54.618-40.2.051.039,55.485,42.7-.448-.052-141.715-16.336.575-.175Zm54.67,42.384-54.72-42.108L2507.5,988.073ZM157.551,969.683l.068.008,70.469,8.636-.233.185-232.9,185.38.793-.948Zm69.915,8.82-69.81-8.555L-3.273,1162.158Zm-71.844-8.374-.256.306L-7.589,1165.068l.24-.665,60.18-166.224.062-.017Zm-162.5,193.694L154.919,970.58l-101.9,27.806Zm309.119-176.4.158.019,26.186,3.2.031.057,81.995,150.918-.044.064L333.99,1252.829l-.039-.329Zm26.186,3.454-25.9-3.167,31.627,264.435,76.163-110.54-.026-.046Zm1.615-.046.241.029,91.069,11.161-.009.119-10.367,137.657-.2-.373Zm91.043,11.409-90.591-11.1,80.3,147.794ZM51.422,998.562l-.082.226L-9.542,1166.962l-.139-.138-120.213-118.781.209-.057ZM-9.644,1166.51,51.023,998.93l-180.433,49.241Zm432.089-163.065.2.347,80.787,138.479-.222,0-91.092-1.692.01-.132ZM503,1142.014l-80.361-137.748L412.39,1140.331Zm975.426-108.441.056.237,62.627,263.856-.269-.189L1359.7,1170.162l.091-.1Zm62.288,263.51L1478.29,1034.1l-118.221,136.012Zm-1672.3-247.955.014.286,6.256,131.343-.116.014-152.49,17.5.247-.252Zm6.009,131.407-6.231-130.824-145.442,148.234Zm-4.806-131.3.228.225L-10.608,1167.6l-.26.029-113.256,13-.007-.134Zm119.229,118.174L-130.1,1049.86l6.217,130.482Zm-123.862-116.48-.74.755L-279.8,1198.5l-.044,0-111.2,12.753.468-.293Zm-144.9,147.333,143.244-146-253.3,158.621Zm1281.2-116.794.064.172,94.626,253.442-.226-.052L796.252,1266.2l.179-.161Zm94.294,253.267-94.4-252.835-204.4,184.171Zm-683.3-192.966.2,0,90.058,1.675-.34.222-67.853,44.308-.062-.129Zm89.444,1.914-89.044-1.656,21.77,45.586Zm-90.353-1.044.094.195,21.871,45.8-.092.06L335.8,1252.311l.36-.523Zm21.644,45.908-21.683-45.41-74.6,108.273Zm71.54-44.98.061.026,155.607,66.215-.066.121-28.276,51.735-.077,0-164.314-4.293-.033-.069-32.59-68.238.092-.06Zm155.317,66.363-155.292-66.081-69.392,45.3,32.463,67.971,164.084,4.288Zm-151.62-66.093.8.074,178.146,16.572-.092.167-26.3,48.108-.1-.044ZM686.785,1160.7l-176.969-16.463,150.866,64.205Zm.817,1.512.011.465,1.44,58.1-.179-.076L661.9,1209.229l.066-.121Zm1.192,58.188-1.418-57.252-25.122,45.964Zm-699.312-51.612-.151.225-106.453,158.649-.018-.378-6.931-145.463.116-.013Zm-106.39,158.107,105.882-157.8-112.783,12.944ZM1359.4,1171.417l.195.137,181.262,127.4-.2.091L1357.8,1384.7l0-.2Zm180.96,127.493L1359.643,1171.9l-1.589,212.406ZM1358.2,1172.038l0,.37-1.6,212.85-.071.033-94.481,44.253-.056-.032-71.563-40.872.088-.114Zm-1.848,213.06,1.593-212.323L1190.8,1388.565l71.257,40.7Zm-922.5-195.383.062.129,32.23,67.49-.2-.005-130.424-3.405.336-.219Zm31.89,67.359-31.993-66.993-97.426,63.613Zm-746.877-57.227-.247.252L-413.34,1334.585l.065-.391,20.192-121.494.094-.011Zm-131.825,134,131.152-133.668-111.057,12.751ZM661.322,1210.28l.1.044,27.661,11.768,0,.081,1.016,41.009-.132,0-56.763-1.486.1-.179Zm27.519,11.979-27.409-11.66-27.808,50.855,56.223,1.472Zm-1233.666-8.84.054.182,15.418,52.608-.105.042-153.672,61.926.616-.512Zm15.168,52.644-15.3-52.208-136.779,113.492Zm135.185-52.271-.061.368-20.111,120.975-.171-.162-53.592-51,.1-.091Zm-20.341,120.838,19.972-120.142-73.2,69.486Zm18.532-120.759-.477.452-72.511,68.827-.086-.082-29.344-27.922.181-.072Zm-72.988,68.934,71.864-68.212-100.84,40.64Zm-74.043-68.463.337.321,42.106,40.072-.181.072-27.187,10.96-.039-.132Zm41.99,40.306-41.488-39.484,14.737,50.268ZM690.291,1222.6l.179.076,101.421,43.172-.656-.018-99.935-2.612,0-.119Zm100.294,42.964L690.55,1222.98l.992,39.993Zm-1290.5-9.932.058.055,29.718,28.284-.1.091-41.184,39.092-.058-.2-16.428-56.038.105-.042Zm29.414,28.339-29.47-28.047-27.63,11.142,16.307,55.625Zm938.558-25.393.2.005,162.966,4.256-.1.179-34.6,63.277-.085-.011-102.6-13.716-.029-.061Zm162.755,4.5-162.354-4.24,25.554,53.5,102.379,13.687Zm1.753-.2.076,0,57.49,1.5,0,.119,1.846,74.57-.145-.02-94.041-12.576.088-.16Zm57.322,1.746-57.176-1.492-34.523,63.143,93.535,12.508Zm1.438-.211.132,0,101.775,2.641-.3.217L693.163,1338.6l-.005-.236Zm101.154,2.874-100.9-2.618,1.819,73.459Zm2.509-.019.074.059,88.173,70.016-.353,0-188.4,1.786.322-.231Zm87.54,69.832-87.547-69.519-99.71,71.294Zm-1411.547-69.732.039.132,16.585,56.574-119.276,113.21-.072-.026-71.3-25.205.022-.107,17.082-81.341.062-.025Zm16.342,56.63-16.5-56.295-156.538,63.084-17.033,81.1,71.02,25.107Zm1310.125-56.307.538.124,293.875,67.55-206.726,1.958-.035-.028Zm292.3,67.444-291.279-66.953,86.753,68.89Zm-1559.021-50.336.086.082,54.034,51.419-.116.089-75.388,57.605-.051-.175-20.332-69.37.055-.052Zm53.735,51.48-53.735-51.135-41.486,39.382,20.239,69.049Zm-429.438-47.089.051.059,90.169,104.849-.407-.121-230.76-68.289.437-.113Zm89.477,104.427-89.565-104.145L-984.988,1325.7Zm-87.561-104.038.388.1,155.04,40.8-.161.154-65.6,63.216-.087-.1Zm154.934,41.028-154.22-40.581,88.969,103.459ZM1539.2,1301.046l-.506.5-181.631,181.165,0-.3.724-96.394.071-.033Zm-181.883,181.063,180.695-180.231-179.974,84.3Zm-863.181-168.3.161.021,101.612,13.583-.088.16-81.081,148.315-.049-.382Zm101.379,13.8L494.431,1314.1,514.9,1475.094Zm-1107.537-2.254.058.2,20.28,69.209-.068.052L-574,1457.666l-.064-.023-56.343-19.915.148-.141Zm20.049,69.311-20.174-68.848-117.794,111.8,55.895,19.757Zm1089.148-67.081.085.011,93.837,12.543-.237.183L516.278,1475.577l.288-.526Zm93.3,12.723-93.159-12.452-80.246,146.784Zm-1377.915-8.375-.084.4-16.654,79.305-48.269-17.064.146-.141Zm-16.924,79.372,16.512-78.629-64.13,61.795Zm1800.692-74.8v.126l1.006,169.188-.2-.162L886.618,1338.5l.353,0Zm.754,168.794-1-168.542-208.755,1.981Zm.442-168.364.188.107,90.932,51.943-.088.114-90.029,116.233,0-.362Zm90.747,52.124-90.494-51.693,1,167.239ZM-415.01,1337.689l-.038.3-27.821,219.082-.169-.575L-490.3,1395.226l.068-.052Zm-27.956,218.158,27.633-217.6-74.68,57.07ZM1356.6,1386.585l0,.2-.722,96.364-92.559-52.881.218-.1Zm-.97,96.133.718-95.739-92.488,43.309Zm-165.936-93.13.094.054,70.941,40.518-.218.1-160.575,75.216.317-.409Zm70.492,40.549-70.428-40.224-88.992,114.9Zm-2012.661-34.3.2.072,47.85,16.914-.022.107-23.913,113.885-.115-.624Zm47.765,17.148-47.44-16.769,23.811,129.305Zm213.4-16.981.051.175,47.535,162.205-.3-.236-128.874-99.808.129-.1Zm47.129,161.71-47.267-161.29-81.045,61.917Zm-259.1-144.487,70.638,24.971-.148.141-94.627,89.816.082-.392Zm70.17,25.071-69.984-24.74-23.914,113.864Zm1895.106-7.409.056.032,92.458,52.822-.4.035-252.852,22.4.641-.3Zm91.7,52.675-91.708-52.393L1102.644,1505.8ZM-573.3,1459.548l.2.155,129.651,100.41-.063.1-130.931,199.368,0-.421Zm129.515,100.621-129.267-100.113-1.139,298.681Zm.933,1.223.44,1.5.055-.453.179.475,35.441,93.9-.088.054-166.242,102.791.309-.472Zm.54,2.734-.628-2.144-129.3,196.868,165.193-102.143-35.189-93.229Z" transform="translate(995.379 -29.086)" fill="#b3b3b3"/><path d="M-732.834,577.694a13,13,0,0,1-10.69,14.952,13,13,0,0,1-14.955-10.69A13,13,0,0,1-747.789,567,13,13,0,0,1-732.834,577.694Z" transform="translate(1326.8 727.437)" fill="#999"/><path d="M-729.442,709.823a13,13,0,0,1-10.69,14.952,13,13,0,0,1-14.952-10.692A13,13,0,0,1-744.4,699.131,13,13,0,0,1-729.442,709.823Z" transform="translate(1331.644 916.023)" fill="#999"/><path d="M-616.167,458.787a13,13,0,0,1-10.687,14.962,13,13,0,0,1-14.96-10.7A13,13,0,0,1-631.119,448.1,13,13,0,0,1-616.167,458.787Z" transform="translate(1493.315 557.727)" fill="#999"/><path d="M-791.051,525.394a10.109,10.109,0,0,1-8.316,11.629A10.11,10.11,0,0,1-811,528.71a10.1,10.1,0,0,1,8.316-11.627A10.1,10.1,0,0,1-791.051,525.394Z" transform="translate(1251.897 656.241)" fill="#999"/><path d="M-722.926,410.923a10.105,10.105,0,0,1-8.313,11.629,10.108,10.108,0,0,1-11.634-8.311,10.108,10.108,0,0,1,8.318-11.627A10.1,10.1,0,0,1-722.926,410.923Z" transform="translate(1349.129 492.863)" fill="#999"/><path d="M-866.814,656.215a10.11,10.11,0,0,1-8.313,11.627,10.106,10.106,0,0,1-11.629-8.311,10.109,10.109,0,0,1,8.311-11.636A10.109,10.109,0,0,1-866.814,656.215Z" transform="translate(1143.765 842.948)" fill="#999"/><path d="M-803.155,626.731a10.106,10.106,0,0,1-8.316,11.629,10.108,10.108,0,0,1-11.629-8.311,10.115,10.115,0,0,1,8.313-11.639A10.111,10.111,0,0,1-803.155,626.731Z" transform="translate(1234.621 800.866)" fill="#999"/><path d="M-501.92,425.154a10.108,10.108,0,0,1-8.313,11.624,10.11,10.11,0,0,1-11.629-8.309,10.109,10.109,0,0,1,8.311-11.636A10.113,10.113,0,0,1-501.92,425.154Z" transform="translate(1664.575 513.157)" fill="#999"/><path d="M-501.779,317.161a10.111,10.111,0,0,1-8.313,11.629,10.112,10.112,0,0,1-11.631-8.309,10.115,10.115,0,0,1,8.316-11.636A10.111,10.111,0,0,1-501.779,317.161Z" transform="translate(1664.774 359.027)" fill="#999"/><path d="M-331.868,312.436a10.11,10.11,0,0,1-8.318,11.629,10.105,10.105,0,0,1-11.629-8.313,10.113,10.113,0,0,1,8.311-11.634A10.115,10.115,0,0,1-331.868,312.436Z" transform="translate(1907.282 352.279)" fill="#999"/><path d="M-914.751,556.764a10.108,10.108,0,0,1-8.316,11.629A10.109,10.109,0,0,1-934.7,560.08a10.118,10.118,0,0,1,8.316-11.636A10.118,10.118,0,0,1-914.751,556.764Z" transform="translate(1075.339 701.003)" fill="#999"/><path d="M-854.08,572.692A7.221,7.221,0,0,1-860.022,581a7.216,7.216,0,0,1-8.3-5.942,7.219,7.219,0,0,1,5.937-8.3A7.22,7.22,0,0,1-854.08,572.692Z" transform="translate(1170.128 727.198)" fill="#999"/><path d="M-978.373,570.838a7.218,7.218,0,0,1-5.942,8.3,7.211,7.211,0,0,1-8.306-5.93,7.216,7.216,0,0,1,5.937-8.314A7.224,7.224,0,0,1-978.373,570.838Z" transform="translate(992.721 724.542)" fill="#999"/><path d="M-881.806,599.415a7.222,7.222,0,0,1-5.939,8.3,7.214,7.214,0,0,1-8.306-5.935,7.223,7.223,0,0,1,5.935-8.311A7.226,7.226,0,0,1-881.806,599.415Z" transform="translate(1130.556 765.33)" fill="#999"/><path d="M-753.63,667.372a7.229,7.229,0,0,1-5.94,8.313,7.224,7.224,0,0,1-8.309-5.942,7.217,7.217,0,0,1,5.94-8.3A7.22,7.22,0,0,1-753.63,667.372Z" transform="translate(1313.496 862.337)" fill="#999"/><path d="M-808.181,750.435a7.215,7.215,0,0,1-5.937,8.3,7.223,7.223,0,0,1-8.309-5.935,7.229,7.229,0,0,1,5.94-8.311A7.223,7.223,0,0,1-808.181,750.435Z" transform="translate(1235.64 980.879)" fill="#999"/><path d="M-733.427,524.082a7.217,7.217,0,0,1-5.94,8.3,7.216,7.216,0,0,1-8.306-5.935,7.219,7.219,0,0,1,5.935-8.314A7.22,7.22,0,0,1-733.427,524.082Z" transform="translate(1342.334 657.803)" fill="#999"/><path d="M-575.105,505.9a7.225,7.225,0,0,1-5.937,8.316,7.225,7.225,0,0,1-8.308-5.944,7.218,7.218,0,0,1,5.937-8.3A7.216,7.216,0,0,1-575.105,505.9Z" transform="translate(1568.307 631.867)" fill="#999"/><path d="M-619.736,572.418a7.224,7.224,0,0,1-5.937,8.311,7.222,7.222,0,0,1-8.308-5.942,7.226,7.226,0,0,1,5.939-8.311A7.226,7.226,0,0,1-619.736,572.418Z" transform="translate(1504.605 726.798)" fill="#999"/><path d="M-279.091,588.781A12.989,12.989,0,0,1-297.22,591.8a12.991,12.991,0,0,1-3.015-18.127,12.986,12.986,0,0,1,18.132-3.015A12.988,12.988,0,0,1-279.091,588.781Z" transform="translate(1977.638 729.433)" fill="#999"/><path d="M-112.516,587.2a13,13,0,0,1-18.137,3.015,13.006,13.006,0,0,1-3.015-18.127,13,13,0,0,1,18.137-3.017A12.989,12.989,0,0,1-112.516,587.2Z" transform="translate(2215.387 727.177)" fill="#999"/><path d="M-284.974,511.338a10.1,10.1,0,0,1-14.1,2.345,10.106,10.106,0,0,1-2.345-14.1,10.107,10.107,0,0,1,14.1-2.345A10.1,10.1,0,0,1-284.974,511.338Z" transform="translate(1976.718 625.422)" fill="#999"/><path d="M-501.706,255.3a10.109,10.109,0,0,1-14.1,2.345,10.107,10.107,0,0,1-2.342-14.1,10.106,10.106,0,0,1,14.1-2.345A10.1,10.1,0,0,1-501.706,255.3Z" transform="translate(1667.378 259.98)" fill="#999"/><path d="M-155.857,478.574a10.115,10.115,0,0,1-14.107,2.347,10.117,10.117,0,0,1-2.345-14.1,10.105,10.105,0,0,1,14.107-2.345A10.108,10.108,0,0,1-155.857,478.574Z" transform="translate(2160.998 578.651)" fill="#999"/><path d="M-431.043,550.267a10.094,10.094,0,0,1-14.1,2.347,10.115,10.115,0,0,1-2.347-14.1,10.109,10.109,0,0,1,14.1-2.342A10.105,10.105,0,0,1-431.043,550.267Z" transform="translate(1768.232 680.985)" fill="#999"/><path d="M-365.182,574.433a10.114,10.114,0,0,1-14.1,2.347,10.11,10.11,0,0,1-2.345-14.1,10.111,10.111,0,0,1,14.1-2.342A10.109,10.109,0,0,1-365.182,574.433Z" transform="translate(1862.233 715.477)" fill="#999"/><path d="M-9.642,644.907a10.1,10.1,0,0,1-14.1,2.345,10.106,10.106,0,0,1-2.345-14.107,10.107,10.107,0,0,1,14.1-2.345A10.1,10.1,0,0,1-9.642,644.907Z" transform="translate(2369.699 816.056)" fill="#999"/><path d="M66.82,568.637a10.106,10.106,0,1,1-2.342-14.093A10.095,10.095,0,0,1,66.82,568.637Z" transform="translate(2478.827 707.209)" fill="#999"/><path d="M-394.622,446.056a10.114,10.114,0,0,1-14.1,2.345,10.111,10.111,0,0,1-2.345-14.112,10.1,10.1,0,0,1,14.1-2.345A10.109,10.109,0,0,1-394.622,446.056Z" transform="translate(1820.218 532.232)" fill="#999"/><path d="M-364.684,500.922a7.229,7.229,0,0,1-10.073,1.675,7.219,7.219,0,0,1-1.675-10.071,7.219,7.219,0,0,1,10.071-1.675A7.213,7.213,0,0,1-364.684,500.922Z" transform="translate(1870.422 617.077)" fill="#999"/><path d="M-451.261,411.716a7.209,7.209,0,0,1-10.073,1.672,7.218,7.218,0,0,1-1.672-10.071,7.222,7.222,0,0,1,10.073-1.675A7.219,7.219,0,0,1-451.261,411.716Z" transform="translate(1746.854 489.752)" fill="#999"/><path d="M-383.369,370.4a7.211,7.211,0,0,1-10.073,1.672A7.222,7.222,0,0,1-395.12,362a7.233,7.233,0,0,1,10.076-1.677A7.228,7.228,0,0,1-383.369,370.4Z" transform="translate(1843.751 430.777)" fill="#999"/><path d="M-406.746,246.612a7.226,7.226,0,0,1-10.073,1.677,7.224,7.224,0,0,1-1.677-10.073,7.222,7.222,0,0,1,10.078-1.675A7.219,7.219,0,0,1-406.746,246.612Z" transform="translate(1810.386 254.101)" fill="#999"/><path d="M-403.18,500.207a7.218,7.218,0,0,1-10.076,1.677,7.222,7.222,0,0,1-1.672-10.078,7.219,7.219,0,0,1,10.071-1.672A7.219,7.219,0,0,1-403.18,500.207Z" transform="translate(1815.475 616.053)" fill="#999"/><path d="M-360.607,638.9a7.23,7.23,0,0,1-10.073,1.677,7.224,7.224,0,0,1-1.675-10.073,7.224,7.224,0,0,1,10.073-1.677A7.219,7.219,0,0,1-360.607,638.9Z" transform="translate(1876.242 814.008)" fill="#999"/><path d="M-244.992,551.861a7.222,7.222,0,0,1-10.071,1.672,7.216,7.216,0,0,1-1.677-10.071,7.213,7.213,0,0,1,10.076-1.675A7.218,7.218,0,0,1-244.992,551.861Z" transform="translate(2041.257 689.772)" fill="#999"/><path d="M-120.187,650.965a7.23,7.23,0,0,1-10.076,1.675,7.22,7.22,0,0,1-1.672-10.076,7.206,7.206,0,0,1,10.071-1.675A7.223,7.223,0,0,1-120.187,650.965Z" transform="translate(2219.386 831.218)" fill="#999"/><path d="M704.539,177.92a13,13,0,1,1,18.005,3.709A13,13,0,0,1,704.539,177.92Z" transform="translate(3412.148 143.6)" fill="#999"/><path d="M646.062,333.9a13,13,0,1,1,18,3.714A13,13,0,0,1,646.062,333.9Z" transform="translate(3328.684 366.224)" fill="#999"/><path d="M775.02,199.578a10.106,10.106,0,1,1,14,2.884A10.107,10.107,0,0,1,775.02,199.578Z" transform="translate(3513.417 180.899)" fill="#999"/><path d="M759.12,331.823a10.111,10.111,0,1,1,14,2.9A10.1,10.1,0,0,1,759.12,331.823Z" transform="translate(3490.728 369.665)" fill="#999"/><path d="M791.267,49.282a10.109,10.109,0,1,1,14,2.886A10.1,10.1,0,0,1,791.267,49.282Z" transform="translate(3536.613 -33.613)" fill="#999"/><path d="M745.02,102.024a10.108,10.108,0,1,1,14,2.9A10.106,10.106,0,0,1,745.02,102.024Z" transform="translate(3470.603 41.678)" fill="#999"/><path d="M551.3,408.381a10.111,10.111,0,1,1,14.005,2.891A10.11,10.11,0,0,1,551.3,408.381Z" transform="translate(3194.118 478.934)" fill="#999"/><path d="M594.939,507.163a10.111,10.111,0,1,1,14,2.891A10.1,10.1,0,0,1,594.939,507.163Z" transform="translate(3256.394 619.923)" fill="#999"/><path d="M875.391,120.776a10.109,10.109,0,1,1,14,2.886A10.122,10.122,0,0,1,875.391,120.776Z" transform="translate(3656.687 68.427)" fill="#999"/><path d="M809.53,128.226a7.221,7.221,0,1,1,10,2.061A7.216,7.216,0,0,1,809.53,128.226Z" transform="translate(3563.357 85.459)" fill="#999"/><path d="M923.918,79.562a7.217,7.217,0,1,1,10,2.061A7.226,7.226,0,0,1,923.918,79.562Z" transform="translate(3726.62 15.994)" fill="#999"/><path d="M824.053,92.57a7.219,7.219,0,1,1,10,2.063A7.229,7.229,0,0,1,824.053,92.57Z" transform="translate(3584.083 34.558)" fill="#999"/><path d="M679.33,82.367a7.22,7.22,0,1,1,10,2.073A7.22,7.22,0,0,1,679.33,82.367Z" transform="translate(3377.526 20.008)" fill="#999"/><path d="M718.929,221.569a7.22,7.22,0,1,1,10,2.061A7.211,7.211,0,0,1,718.929,221.569Z" transform="translate(3434.043 218.68)" fill="#999"/><path d="M581.548,302.334a7.22,7.22,0,1,1,10,2.061A7.222,7.222,0,0,1,581.548,302.334Z" transform="translate(3237.965 333.961)" fill="#999"/><path d="M285.221,351.647A13,13,0,1,1,295.329,367,12.986,12.986,0,0,1,285.221,351.647Z" transform="translate(2816.329 405.509)" fill="#999"/><path d="M133.577,420.586a13,13,0,1,1,10.11,15.357A13,13,0,0,1,133.577,420.586Z" transform="translate(2599.89 503.912)" fill="#999"/><path d="M318.04,417.5a10.11,10.11,0,1,1,7.857,11.952A10.106,10.106,0,0,1,318.04,417.5Z" transform="translate(2863.259 502.784)" fill="#999"/><path d="M213.284,499.781a10.109,10.109,0,1,1,7.86,11.942A10.121,10.121,0,0,1,213.284,499.781Z" transform="translate(2713.74 620.218)" fill="#999"/><path d="M435.807,322.711a10.109,10.109,0,1,1,7.86,11.945A10.106,10.106,0,0,1,435.807,322.711Z" transform="translate(3031.344 367.507)" fill="#999"/><path d="M365.8,327.316a10.107,10.107,0,1,1,7.86,11.942A10.1,10.1,0,0,1,365.8,327.316Z" transform="translate(2931.431 374.068)" fill="#999"/><path d="M12.2,406.968a10.107,10.107,0,1,1,7.86,11.935A10.109,10.109,0,0,1,12.2,406.968Z" transform="translate(2426.741 487.752)" fill="#999"/><path d="M-26.792,507.667a10.1,10.1,0,0,1,11.935-7.86,10.113,10.113,0,0,1,7.867,11.94,10.106,10.106,0,0,1-11.942,7.862A10.106,10.106,0,0,1-26.792,507.667Z" transform="translate(2371.081 631.481)" fill="#999"/><path d="M444.741,432.762a10.109,10.109,0,1,1,7.86,11.94A10.112,10.112,0,0,1,444.741,432.762Z" transform="translate(3044.096 524.564)" fill="#999"/><path d="M391.2,392.154a7.221,7.221,0,1,1,5.612,8.532A7.222,7.222,0,0,1,391.2,392.154Z" transform="translate(2967.758 469.909)" fill="#999"/><path d="M506.491,438.631a7.223,7.223,0,1,1,5.617,8.527A7.235,7.235,0,0,1,506.491,438.631Z" transform="translate(3132.321 536.235)" fill="#999"/><path d="M426.681,377.212a7.221,7.221,0,1,1,5.612,8.529A7.226,7.226,0,0,1,426.681,377.212Z" transform="translate(3018.406 448.573)" fill="#999"/><path d="M331.558,267.672a7.222,7.222,0,1,1,5.614,8.527A7.219,7.219,0,0,1,331.558,267.672Z" transform="translate(2882.638 292.225)" fill="#999"/><path d="M261.13,394.092a7.223,7.223,0,1,1,5.619,8.525A7.219,7.219,0,0,1,261.13,394.092Z" transform="translate(2782.117 472.672)" fill="#999"/><path d="M106.879,354.073a7.222,7.222,0,1,1,5.612,8.527A7.22,7.22,0,0,1,106.879,354.073Z" transform="translate(2561.954 415.542)" fill="#999"/></g></g></g></svg>