<svg xmlns="http://www.w3.org/2000/svg" xmlns:xlink="http://www.w3.org/1999/xlink" width="200.963" height="55.266" viewBox="0 0 200.963 55.266"><defs><linearGradient id="a" x1="26.518" y1="-17.298" x2="4.223" y2="-2.019" gradientUnits="objectBoundingBox"><stop offset="0" stop-color="#f9a92a"/><stop offset="0.095" stop-color="#f9a92a"/><stop offset="0.587" stop-color="#8abb2a"/><stop offset="1" stop-color="#0d988c"/></linearGradient><linearGradient id="b" x1="41.945" y1="-28.018" x2="4.901" y2="-2.632" xlink:href="#a"/><linearGradient id="c" x1="45.931" y1="-31.011" x2="2.933" y2="-1.545" xlink:href="#a"/><linearGradient id="d" x1="24.648" y1="-16.193" x2="2.353" y2="-0.915" xlink:href="#a"/><linearGradient id="e" x1="22.064" y1="-14.655" x2="-0.231" y2="0.624" xlink:href="#a"/><linearGradient id="f" x1="16.747" y1="-11.05" x2="-1.293" y2="1.312" xlink:href="#a"/><linearGradient id="g" x1="13.047" y1="-8.275" x2="0.506" y2="0.319" xlink:href="#a"/><linearGradient id="h" x1="9.967" y1="-6.3" x2="-1.181" y2="1.339" xlink:href="#a"/><linearGradient id="i" x1="6.683" y1="-4.093" x2="-2.031" y2="1.879" xlink:href="#a"/><linearGradient id="j" x1="10.607" y1="-7.411" x2="-7.433" y2="4.951" xlink:href="#a"/><linearGradient id="k" x1="15.68" y1="-10.865" x2="-6.615" y2="4.414" xlink:href="#a"/><linearGradient id="l" x1="21.104" y1="-14.465" x2="-4.808" y2="3.292" xlink:href="#a"/><linearGradient id="m" x1="27.385" y1="-19.323" x2="-9.26" y2="5.789" xlink:href="#a"/><linearGradient id="n" x1="15.858" y1="-11.357" x2="-10.161" y2="6.474" xlink:href="#a"/><linearGradient id="o" x1="26.738" y1="-19.523" x2="-15.4" y2="9.353" xlink:href="#a"/><linearGradient id="p" x1="12.834" y1="-9.176" x2="-9.461" y2="6.103" xlink:href="#a"/><linearGradient id="q" x1="15.049" y1="-11.239" x2="-14.404" y2="8.945" xlink:href="#a"/><linearGradient id="r" x1="8.631" y1="-6.326" x2="-10.322" y2="6.662" xlink:href="#a"/><linearGradient id="s" x1="7.257" y1="-5.043" x2="-7.231" y2="4.886" xlink:href="#a"/><linearGradient id="t" x1="4.518" y1="-3.131" x2="-7.262" y2="4.942" xlink:href="#a"/><linearGradient id="u" x1="12.992" y1="-10.724" x2="-23.123" y2="14.025" xlink:href="#a"/><linearGradient id="v" x1="5.227" y1="-4.368" x2="-14.254" y2="8.982" xlink:href="#a"/><linearGradient id="w" x1="6.273" y1="-5.447" x2="-17.583" y2="10.901" xlink:href="#a"/><linearGradient id="x" x1="4.821" y1="-3.808" x2="-11.713" y2="7.523" xlink:href="#a"/><linearGradient id="y" x1="9.748" y1="-7.083" x2="-14.108" y2="9.265" xlink:href="#a"/><linearGradient id="z" x1="18.667" y1="-13.072" x2="-17.448" y2="11.677" xlink:href="#a"/><linearGradient id="aa" x1="29.013" y1="-21.701" x2="-37.264" y2="23.717" xlink:href="#a"/><linearGradient id="ab" x1="10.715" y1="-8.523" x2="-20.179" y2="12.648" xlink:href="#a"/><linearGradient id="ac" x1="4.501" y1="-3.744" x2="-13.274" y2="8.437" xlink:href="#a"/><linearGradient id="ad" x1="1.695" y1="-1.13" x2="-7.034" y2="4.852" xlink:href="#a"/><linearGradient id="ae" x1="2.129" y1="-1.461" x2="-7.185" y2="4.922" xlink:href="#a"/><linearGradient id="af" x1="0.81" y1="-0.533" x2="-7.214" y2="4.966" xlink:href="#a"/><linearGradient id="ag" x1="-0.678" y1="0.231" x2="-9.862" y2="6.524" xlink:href="#a"/><linearGradient id="ah" x1="0.41" y1="-0.103" x2="-5.862" y2="4.195" xlink:href="#a"/><linearGradient id="ai" x1="-0.556" y1="-0.798" x2="-18.874" y2="11.755" xlink:href="#a"/><linearGradient id="aj" x1="0.71" y1="-1.111" x2="-13.404" y2="8.562" xlink:href="#a"/><linearGradient id="ak" x1="2.199" y1="-1.992" x2="-11.916" y2="7.68" xlink:href="#a"/><linearGradient id="al" x1="2.118" y1="-1.514" x2="-7.928" y2="5.371" xlink:href="#a"/><linearGradient id="am" x1="3.825" y1="-4.333" x2="-23.52" y2="14.405" xlink:href="#a"/><linearGradient id="an" x1="5.415" y1="-4.168" x2="-11.292" y2="7.282" xlink:href="#a"/><linearGradient id="ao" x1="13.929" y1="-13.446" x2="-43.009" y2="25.572" xlink:href="#a"/></defs><path d="M254.891,184.171h6.538v7.413H239.91v-7.413h6.538V164.506H239.91v-7.413h21.518v7.413h-6.538Z" transform="translate(-239.91 -137.09)" fill="#fff"/><g transform="translate(122.56 14.854)"><path d="M586.936,188.014v16.371h-7.928v-1.9a11.418,11.418,0,0,1-7.722,2.677c-5.766,0-9.627-3.346-9.627-8.443,0-5.045,3.861-8.34,10.759-8.34h6.59v-.515a3.445,3.445,0,0,0-3.655-3.6c-2.471,0-3.912.978-4.324,3.243l-7.774-1.6c1.132-4.993,5.663-8.134,11.84-8.134C582.354,177.77,586.936,181.425,586.936,188.014Zm-7.928,6.178v-.566h-5.663c-2.059,0-3.346,1.081-3.346,2.677,0,1.647,1.441,2.677,3.6,2.677C576.434,198.98,579.008,197.075,579.008,194.192Z" transform="translate(-561.659 -164.745)" fill="#fff"/><path d="M654.644,190.452a14.031,14.031,0,0,1-7.053,1.9c-6.435,0-10.3-3.5-10.3-10.3v-9.781h-4.685v-6.538H637.3v-8.648h8.237v8.648h7.619v6.538h-7.619v8.958c0,2.677,1.286,3.758,3.449,3.758a8.412,8.412,0,0,0,3.758-1.03Z" transform="translate(-605.584 -151.944)" fill="#fff"/><path d="M724.9,167.361v15.856h-8.186V169.111c0-3.037-1.8-5.1-4.478-5.1-3.192,0-5.3,2.214-5.3,7.207v12H698.7v-39.64h8.237v16.268a10.772,10.772,0,0,1,7.979-3.243C720.885,156.6,724.9,160.874,724.9,167.361Z" transform="translate(-646.497 -143.577)" fill="#fff"/></g><g transform="translate(23.835 19.23)"><path d="M322.208,229.435a18.882,18.882,0,0,0,10.471-2.93c-14.493-.414-23.412-5.75-27.937-9.519A18.071,18.071,0,0,0,322.208,229.435Z" transform="translate(-303.882 -193.399)" fill="#fff"/><path d="M334.894,184.877a16.728,16.728,0,0,0,3.316-7.47l-8.34-1.647c-1.184,5.148-4.685,7.619-9.061,7.619a10.28,10.28,0,0,1,0-20.541c4.427,0,7.928,2.419,9.009,7.413l8.34-1.956c-1.647-8.185-8.855-13.23-17.349-13.23a18.009,18.009,0,0,0-18.327,18.018,18.431,18.431,0,0,0,.434,3.975C314.525,186.947,328.2,185.9,334.894,184.877Z" transform="translate(-302.483 -155.065)" fill="#fff"/></g><g transform="translate(62.853 20.003)"><path d="M416.964,198.566c-1.552,0-3.015-.709-3.015-2.217a2.18,2.18,0,0,1,1.263-2.084h0a2.734,2.734,0,0,1,.712-.219,55.009,55.009,0,0,0,14.247-6.67c-.289-6.185-4.805-9.6-11.825-9.6-6.177,0-10.708,3.14-11.84,8.134l7.774,1.6c.412-2.266,1.853-3.243,4.324-3.243a3.445,3.445,0,0,1,3.655,3.6v.515h-6.589c-6.9,0-10.759,3.295-10.759,8.34,0,5.1,3.861,8.443,9.627,8.443a11.418,11.418,0,0,0,7.722-2.677v1.9h7.928v-8.592a94.223,94.223,0,0,1-11.543,2.526A5.579,5.579,0,0,1,416.964,198.566Z" transform="translate(-404.913 -169.894)" fill="#0d988c"/><path d="M483.814,203.684h8.494V193.13h8.134c7.979,0,13.024-4.788,13.024-12.046a13.17,13.17,0,0,0-.734-4.447,82.69,82.69,0,0,1-28.918,16.946Z" transform="translate(-453.759 -169.192)" fill="#fff"/><path d="M495.512,157.093h-11.7v13.873A57.145,57.145,0,0,0,495.512,157.093Z" transform="translate(-453.759 -157.093)" fill="#fff"/><path d="M506.113,201.2h.032l-.032-.054Z" transform="translate(-467.564 -184.364)" fill="#fff"/></g><circle cx="0.901" cy="0.901" r="0.901" transform="translate(80.217 42.262)" fill="url(#a)"/><circle cx="0.542" cy="0.542" r="0.542" transform="translate(83.812 43.375)" fill="url(#b)"/><circle cx="0.467" cy="0.467" r="0.467" transform="translate(85.955 41.336)" fill="url(#c)"/><circle cx="0.901" cy="0.901" r="0.901" transform="translate(85.819 43.53)" fill="url(#d)"/><circle cx="0.901" cy="0.901" r="0.901" transform="translate(88.556 37.957)" fill="url(#e)"/><circle cx="1.113" cy="1.113" r="1.113" transform="translate(91.754 37.231)" fill="url(#f)"/><circle cx="1.602" cy="1.602" r="1.602" transform="translate(88.638 41.153)" fill="url(#g)"/><circle cx="1.802" cy="1.802" r="1.802" transform="translate(95.275 38.456)" fill="url(#h)"/><circle cx="2.305" cy="2.305" r="2.305" transform="translate(99.774 33.731)" fill="url(#i)"/><circle cx="1.113" cy="1.113" r="1.113" transform="translate(108.134 33.08)" fill="url(#j)"/><circle cx="0.901" cy="0.901" r="0.901" transform="translate(99.723 30.639)" fill="url(#k)"/><circle cx="0.775" cy="0.775" r="0.775" transform="translate(94.919 32.992)" fill="url(#l)"/><circle cx="0.548" cy="0.548" r="0.548" transform="translate(96.866 30.657)" fill="url(#m)"/><circle cx="0.772" cy="0.772" r="0.772" transform="translate(101.327 25.438)" fill="url(#n)"/><circle cx="0.477" cy="0.477" r="0.477" transform="translate(102.469 29.652)" fill="url(#o)"/><circle cx="0.901" cy="0.901" r="0.901" transform="translate(105.144 28.023)" fill="url(#p)"/><circle cx="0.682" cy="0.682" r="0.682" transform="translate(105.372 23.36)" fill="url(#q)"/><circle cx="1.06" cy="1.06" r="1.06" transform="translate(108.833 23.232)" fill="url(#r)"/><circle cx="1.386" cy="1.386" r="1.386" transform="translate(109.535 27.498)" fill="url(#s)"/><circle cx="1.705" cy="1.705" r="1.705" transform="translate(114.379 24.38)" fill="url(#t)"/><circle cx="0.556" cy="0.556" r="0.556" transform="translate(112.735 21.838)" fill="url(#u)"/><circle cx="1.031" cy="1.031" r="1.031" transform="translate(119.897 24.009)" fill="url(#v)"/><circle cx="0.842" cy="0.842" r="0.842" transform="translate(118.19 21.369)" fill="url(#w)"/><circle cx="1.215" cy="1.215" r="1.215" transform="translate(115.057 18.554)" fill="url(#x)"/><circle cx="1.169" cy="1.169" r="1.169" transform="translate(109.278 17.977)" fill="url(#y)"/><circle cx="1.162" cy="1.162" r="1.162" transform="translate(105.486 19.145)" fill="url(#z)"/><circle cx="0.528" cy="0.528" r="0.528" transform="translate(105.929 14.752)" fill="url(#aa)"/><circle cx="0.756" cy="0.756" r="0.756" transform="translate(109.305 14.302)" fill="url(#ab)"/><circle cx="1.13" cy="1.13" r="1.13" transform="translate(114.085 14.1)" fill="url(#ac)"/><circle cx="2.301" cy="2.301" r="2.301" transform="translate(119.578 15.389)" fill="url(#ad)"/><circle cx="2.157" cy="2.157" r="2.157" transform="translate(123.954 24.292)" fill="url(#ae)"/><circle cx="2.503" cy="2.503" r="2.503" transform="translate(126.395 17.346)" fill="url(#af)"/><circle cx="2.187" cy="2.187" r="2.187" transform="translate(129.822 8.419)" fill="url(#ag)"/><circle cx="3.203" cy="3.203" r="3.203" transform="translate(117.315)" fill="url(#ah)"/><circle cx="1.097" cy="1.097" r="1.097" transform="translate(124.847 6.466)" fill="url(#ai)"/><circle cx="1.423" cy="1.423" r="1.423" transform="translate(123.399 10.495)" fill="url(#aj)"/><circle cx="1.423" cy="1.423" r="1.423" transform="translate(117.543 10.641)" fill="url(#ak)"/><circle cx="1.999" cy="1.999" r="1.999" transform="translate(112.709 7.196)" fill="url(#al)"/><circle cx="0.735" cy="0.735" r="0.735" transform="translate(113.284 4.189)" fill="url(#am)"/><circle cx="1.202" cy="1.202" r="1.202" transform="translate(107.493 10.193)" fill="url(#an)"/><circle cx="0.353" cy="0.353" r="0.353" transform="translate(112.432 12.207)" fill="url(#ao)"/></svg>